%FSLAX23Y23*%
%MOIN*%
G70*
G01*
G75*
G04 Layer_Physical_Order=2*
G04 Layer_Color=16711680*
%ADD10R,0.060X0.056*%
%ADD11R,0.018X0.071*%
%ADD12R,0.071X0.018*%
%ADD13R,0.059X0.059*%
%ADD14R,0.063X0.026*%
%ADD15R,0.059X0.059*%
%ADD16R,0.039X0.118*%
%ADD17R,0.056X0.060*%
%ADD18R,0.081X0.024*%
%ADD19C,0.020*%
%ADD20C,0.015*%
%ADD21C,0.050*%
%ADD22C,0.040*%
%ADD23C,0.030*%
%ADD24R,0.055X0.165*%
%ADD25R,0.165X0.055*%
%ADD26R,0.150X0.050*%
%ADD27C,0.070*%
%ADD28R,0.070X0.070*%
%ADD29R,0.070X0.070*%
%ADD30C,0.100*%
%ADD31R,0.100X0.100*%
%ADD32C,0.295*%
%ADD33C,0.085*%
%ADD34C,0.050*%
%ADD35R,0.063X0.063*%
%ADD36C,0.100*%
%ADD37C,0.080*%
G36*
X12125Y5694D02*
X12121Y5690D01*
X7585Y5690D01*
X7585Y9316D01*
X7589Y9320D01*
X12125Y9320D01*
X12125Y5694D01*
D02*
G37*
%LPC*%
G36*
X8970Y8020D02*
X8960Y8019D01*
X8950Y8015D01*
X8942Y8008D01*
X8935Y8000D01*
X8931Y7990D01*
X8930Y7980D01*
X8931Y7970D01*
X8935Y7960D01*
X8942Y7951D01*
X8947Y7947D01*
Y6653D01*
X8941Y6649D01*
X8935Y6640D01*
X8931Y6630D01*
X8930Y6620D01*
X8931Y6610D01*
X8935Y6600D01*
X8941Y6591D01*
X8950Y6585D01*
X8960Y6581D01*
X8970Y6580D01*
X8980Y6581D01*
X8981Y6580D01*
X8984Y6577D01*
X8981Y6570D01*
X8980Y6560D01*
X8981Y6550D01*
X8985Y6540D01*
X8991Y6531D01*
X8998Y6527D01*
X8998Y6526D01*
X9000Y6523D01*
X9001Y6522D01*
X9001Y6521D01*
X9004Y6519D01*
X9006Y6517D01*
X9008Y6517D01*
X9009Y6516D01*
X9012Y6516D01*
X9015Y6515D01*
X9016Y6515D01*
X9017Y6515D01*
X9021Y6515D01*
X9024Y6515D01*
X9025Y6516D01*
X9026Y6516D01*
X9029Y6518D01*
X9032Y6520D01*
X9033Y6521D01*
X9034Y6521D01*
X9035Y6523D01*
X9040Y6525D01*
X9049Y6531D01*
X9055Y6540D01*
X9059Y6550D01*
X9060Y6560D01*
X9059Y6570D01*
X9055Y6580D01*
X9049Y6589D01*
X9040Y6595D01*
Y6718D01*
X9041Y6718D01*
X9045Y6720D01*
X9055Y6716D01*
X9065Y6715D01*
X9075Y6716D01*
X9085Y6720D01*
X9094Y6726D01*
X9100Y6735D01*
X9104Y6745D01*
X9105Y6755D01*
X9104Y6765D01*
X9100Y6775D01*
X9094Y6784D01*
X9088Y6788D01*
Y7887D01*
X9094Y7891D01*
X9100Y7900D01*
X9104Y7910D01*
X9105Y7920D01*
X9104Y7930D01*
X9100Y7940D01*
X9094Y7949D01*
X9085Y7955D01*
X9075Y7959D01*
X9065Y7960D01*
X9055Y7959D01*
X9045Y7955D01*
X9036Y7949D01*
X9030Y7940D01*
X9026Y7930D01*
X9025Y7920D01*
X9026Y7910D01*
X9030Y7900D01*
X9036Y7891D01*
X9042Y7887D01*
Y7560D01*
X9042Y7560D01*
X9037Y7558D01*
X9028Y7561D01*
X9017Y7563D01*
X9007Y7561D01*
X8998Y7558D01*
X8993Y7560D01*
X8993Y7560D01*
Y7947D01*
X8999Y7951D01*
X9005Y7960D01*
X9009Y7970D01*
X9010Y7980D01*
X9009Y7990D01*
X9005Y8000D01*
X8999Y8008D01*
X8990Y8015D01*
X8980Y8019D01*
X8970Y8020D01*
D02*
G37*
G36*
X10925Y6765D02*
X10865D01*
Y6745D01*
X10850D01*
Y6740D01*
X10777D01*
X10776Y6741D01*
X10764Y6750D01*
X10750Y6756D01*
X10735Y6758D01*
X10720Y6756D01*
X10706Y6750D01*
X10694Y6741D01*
X10685Y6729D01*
X10679Y6715D01*
X10677Y6700D01*
X10679Y6685D01*
X10685Y6671D01*
X10694Y6659D01*
X10706Y6650D01*
X10708Y6649D01*
Y6433D01*
X10696Y6420D01*
X10655D01*
X10649Y6419D01*
X10644Y6416D01*
X10641Y6411D01*
X10640Y6405D01*
Y6375D01*
X10640Y6375D01*
X10640Y6375D01*
Y6350D01*
X10640Y6347D01*
X10635Y6345D01*
X10626Y6339D01*
X10622Y6333D01*
X10455D01*
X10433Y6355D01*
Y6527D01*
X10439Y6531D01*
X10445Y6540D01*
X10449Y6550D01*
X10450Y6560D01*
X10449Y6570D01*
X10445Y6580D01*
X10439Y6589D01*
X10430Y6595D01*
X10420Y6599D01*
X10410Y6600D01*
X10400Y6599D01*
X10390Y6595D01*
X10381Y6589D01*
X10375Y6580D01*
X10371Y6570D01*
X10370Y6560D01*
X10371Y6550D01*
X10375Y6540D01*
X10381Y6531D01*
X10387Y6527D01*
Y6345D01*
X10389Y6336D01*
X10394Y6329D01*
X10429Y6294D01*
X10436Y6289D01*
X10445Y6287D01*
X10622D01*
X10626Y6281D01*
X10632Y6277D01*
Y6275D01*
X10634Y6266D01*
X10639Y6259D01*
X10654Y6244D01*
X10661Y6239D01*
X10670Y6237D01*
X10690D01*
Y6195D01*
X10705D01*
Y6175D01*
X10765D01*
Y6195D01*
X10780D01*
Y6285D01*
X10692D01*
X10689Y6289D01*
X10690Y6290D01*
X10694Y6300D01*
X10695Y6310D01*
X10694Y6320D01*
X10690Y6330D01*
X10691Y6333D01*
X10692Y6335D01*
X10738D01*
X10739Y6335D01*
X10739Y6335D01*
X10795D01*
X10795Y6335D01*
X10795Y6335D01*
X10820D01*
X10826Y6336D01*
X10831Y6339D01*
X10834Y6344D01*
X10835Y6350D01*
Y6375D01*
X10835Y6375D01*
X10835Y6375D01*
Y6405D01*
X10834Y6411D01*
X10831Y6416D01*
X10826Y6419D01*
X10820Y6420D01*
X10781D01*
X10769Y6433D01*
Y6654D01*
X10776Y6659D01*
X10777Y6660D01*
X10850D01*
Y6655D01*
X10940D01*
Y6745D01*
X10925D01*
Y6765D01*
D02*
G37*
G36*
X8805Y7535D02*
X8795Y7534D01*
X8785Y7530D01*
X8776Y7524D01*
X8770Y7515D01*
X8766Y7505D01*
X8765Y7495D01*
X8766Y7485D01*
X8770Y7475D01*
X8776Y7466D01*
X8782Y7462D01*
Y6548D01*
X8776Y6544D01*
X8770Y6535D01*
X8766Y6525D01*
X8765Y6515D01*
X8766Y6505D01*
X8770Y6495D01*
X8776Y6486D01*
X8785Y6480D01*
X8795Y6476D01*
X8805Y6475D01*
X8815Y6476D01*
X8825Y6480D01*
X8834Y6486D01*
X8840Y6495D01*
X8844Y6505D01*
X8845Y6515D01*
X8844Y6525D01*
X8840Y6535D01*
X8834Y6544D01*
X8828Y6548D01*
Y7462D01*
X8834Y7466D01*
X8840Y7475D01*
X8844Y7485D01*
X8845Y7495D01*
X8844Y7505D01*
X8840Y7515D01*
X8834Y7524D01*
X8825Y7530D01*
X8815Y7534D01*
X8805Y7535D01*
D02*
G37*
G36*
X8300Y6985D02*
X8290Y6984D01*
X8280Y6980D01*
X8271Y6974D01*
X8265Y6965D01*
X8261Y6955D01*
X8260Y6945D01*
X8261Y6935D01*
X8265Y6925D01*
X8271Y6916D01*
X8275Y6914D01*
Y6556D01*
X8271Y6554D01*
X8265Y6545D01*
X8261Y6535D01*
X8260Y6525D01*
X8261Y6515D01*
X8265Y6505D01*
X8271Y6496D01*
X8280Y6490D01*
X8290Y6486D01*
X8300Y6485D01*
X8310Y6486D01*
X8320Y6490D01*
X8329Y6496D01*
X8335Y6505D01*
X8339Y6515D01*
X8340Y6525D01*
X8339Y6535D01*
X8335Y6545D01*
X8329Y6554D01*
X8325Y6556D01*
Y6914D01*
X8329Y6916D01*
X8335Y6925D01*
X8339Y6935D01*
X8340Y6945D01*
X8339Y6955D01*
X8335Y6965D01*
X8329Y6974D01*
X8320Y6980D01*
X8310Y6984D01*
X8300Y6985D01*
D02*
G37*
G36*
X11515Y7070D02*
X11502Y7069D01*
X11490Y7065D01*
X11479Y7059D01*
X11469Y7051D01*
X11461Y7041D01*
X11455Y7030D01*
X11451Y7018D01*
X11450Y7005D01*
Y6880D01*
X11451Y6867D01*
X11455Y6855D01*
X11461Y6844D01*
X11469Y6834D01*
X11479Y6826D01*
X11490Y6820D01*
X11502Y6816D01*
X11515Y6815D01*
X11528Y6816D01*
X11540Y6820D01*
X11551Y6826D01*
X11561Y6834D01*
X11569Y6844D01*
X11575Y6855D01*
X11579Y6867D01*
X11580Y6880D01*
Y7005D01*
X11579Y7018D01*
X11575Y7030D01*
X11569Y7041D01*
X11561Y7051D01*
X11551Y7059D01*
X11540Y7065D01*
X11528Y7069D01*
X11515Y7070D01*
D02*
G37*
G36*
X8540Y8250D02*
X8530Y8249D01*
X8520Y8245D01*
X8511Y8239D01*
X8505Y8230D01*
X8501Y8220D01*
X8500Y8210D01*
X8501Y8200D01*
X8505Y8190D01*
X8511Y8181D01*
X8520Y8175D01*
X8522Y8174D01*
Y7318D01*
X8516Y7314D01*
X8510Y7305D01*
X8506Y7295D01*
X8505Y7285D01*
X8506Y7275D01*
X8510Y7265D01*
X8516Y7256D01*
X8525Y7250D01*
X8535Y7246D01*
X8545Y7245D01*
X8555Y7246D01*
X8565Y7250D01*
X8574Y7256D01*
X8580Y7265D01*
X8584Y7275D01*
X8585Y7285D01*
X8584Y7295D01*
X8580Y7305D01*
X8574Y7314D01*
X8568Y7318D01*
Y8181D01*
X8569Y8181D01*
X8575Y8190D01*
X8579Y8200D01*
X8580Y8210D01*
X8579Y8220D01*
X8575Y8230D01*
X8569Y8239D01*
X8560Y8245D01*
X8550Y8249D01*
X8540Y8250D01*
D02*
G37*
G36*
X11965Y7725D02*
X11740D01*
X11726Y7724D01*
X11712Y7718D01*
X11701Y7709D01*
X11692Y7698D01*
X11686Y7684D01*
X11685Y7670D01*
X11686Y7656D01*
X11692Y7642D01*
X11701Y7631D01*
X11712Y7622D01*
X11717Y7620D01*
Y7615D01*
X11715Y7614D01*
X11704Y7606D01*
X11696Y7595D01*
X11691Y7583D01*
X11690Y7570D01*
X11691Y7557D01*
X11696Y7545D01*
X11704Y7534D01*
X11715Y7526D01*
X11724Y7523D01*
Y7517D01*
X11715Y7514D01*
X11704Y7506D01*
X11696Y7495D01*
X11691Y7483D01*
X11690Y7470D01*
X11691Y7457D01*
X11696Y7445D01*
X11704Y7434D01*
X11715Y7426D01*
X11727Y7421D01*
X11740Y7420D01*
X11753Y7421D01*
X11765Y7426D01*
X11776Y7434D01*
X11776Y7435D01*
X11802D01*
Y7425D01*
X11888D01*
Y7425D01*
X11888Y7425D01*
X11892D01*
Y7425D01*
X11892Y7425D01*
X11978D01*
X11980Y7421D01*
Y7338D01*
X11952Y7310D01*
X11565D01*
X11565Y7310D01*
X11551Y7309D01*
X11541Y7305D01*
X11537Y7303D01*
X11526Y7294D01*
X11487Y7255D01*
X11465D01*
Y7228D01*
X11461Y7219D01*
X11460Y7205D01*
X11461Y7191D01*
X11465Y7182D01*
Y7155D01*
X11492D01*
X11501Y7151D01*
X11515Y7150D01*
X11529Y7151D01*
X11538Y7155D01*
X11565D01*
Y7177D01*
X11588Y7200D01*
X11802D01*
X11845Y7157D01*
Y7008D01*
X11842Y7005D01*
X11774D01*
X11765Y7010D01*
X11753Y7014D01*
X11740Y7015D01*
X11727Y7014D01*
X11715Y7010D01*
X11704Y7004D01*
X11694Y6996D01*
X11686Y6986D01*
X11680Y6975D01*
X11676Y6963D01*
X11675Y6950D01*
X11676Y6937D01*
X11680Y6925D01*
X11686Y6914D01*
X11694Y6904D01*
X11704Y6896D01*
X11715Y6890D01*
X11727Y6886D01*
X11740Y6885D01*
X11753Y6886D01*
X11765Y6890D01*
X11774Y6895D01*
X11865D01*
X11879Y6896D01*
X11893Y6902D01*
X11904Y6911D01*
X11939Y6946D01*
X11939Y6946D01*
X11948Y6957D01*
X11950Y6961D01*
X11954Y6971D01*
X11955Y6985D01*
X11955Y6985D01*
Y7157D01*
X12014Y7216D01*
X12074Y7276D01*
X12083Y7287D01*
X12089Y7301D01*
X12090Y7315D01*
Y7600D01*
X12089Y7614D01*
X12083Y7628D01*
X12074Y7639D01*
X12074Y7639D01*
X12004Y7709D01*
X11993Y7718D01*
X11979Y7724D01*
X11965Y7725D01*
D02*
G37*
G36*
X11740Y7180D02*
X11727Y7179D01*
X11715Y7175D01*
X11704Y7169D01*
X11694Y7161D01*
X11686Y7151D01*
X11680Y7140D01*
X11676Y7128D01*
X11675Y7115D01*
X11676Y7102D01*
X11680Y7090D01*
X11686Y7079D01*
X11694Y7069D01*
X11704Y7061D01*
X11715Y7055D01*
X11727Y7051D01*
X11740Y7050D01*
X11753Y7051D01*
X11765Y7055D01*
X11776Y7061D01*
X11786Y7069D01*
X11794Y7079D01*
X11800Y7090D01*
X11804Y7102D01*
X11805Y7115D01*
X11804Y7128D01*
X11800Y7140D01*
X11794Y7151D01*
X11786Y7161D01*
X11776Y7169D01*
X11765Y7175D01*
X11753Y7179D01*
X11740Y7180D01*
D02*
G37*
G36*
X9383Y8095D02*
X9297D01*
Y8005D01*
X9315D01*
Y7975D01*
X9316Y7965D01*
X9322Y7957D01*
X9335Y7944D01*
X9333Y7938D01*
X9325Y7935D01*
X9316Y7929D01*
X9310Y7920D01*
X9306Y7910D01*
X9305Y7900D01*
X9306Y7890D01*
X9310Y7880D01*
X9316Y7871D01*
X9322Y7867D01*
Y7264D01*
X9322Y7264D01*
X9310Y7259D01*
X9299Y7251D01*
X9291Y7240D01*
X9290Y7237D01*
X9285Y7238D01*
Y7265D01*
X9185D01*
Y7165D01*
X9285D01*
Y7192D01*
X9290Y7193D01*
X9291Y7190D01*
X9299Y7179D01*
X9310Y7171D01*
X9322Y7166D01*
X9335Y7165D01*
X9348Y7166D01*
X9360Y7171D01*
X9371Y7179D01*
X9379Y7190D01*
X9382Y7199D01*
X9388D01*
X9391Y7190D01*
X9399Y7179D01*
X9410Y7171D01*
X9422Y7166D01*
X9435Y7165D01*
X9448Y7166D01*
X9460Y7171D01*
X9471Y7179D01*
X9479Y7190D01*
X9482Y7199D01*
X9488D01*
X9491Y7190D01*
X9499Y7179D01*
X9510Y7171D01*
X9522Y7166D01*
X9535Y7165D01*
X9548Y7166D01*
X9560Y7171D01*
X9571Y7179D01*
X9579Y7190D01*
X9582Y7199D01*
X9588D01*
X9591Y7190D01*
X9599Y7179D01*
X9610Y7171D01*
X9622Y7166D01*
X9635Y7165D01*
X9648Y7166D01*
X9660Y7171D01*
X9671Y7179D01*
X9679Y7190D01*
X9682Y7199D01*
X9688D01*
X9691Y7190D01*
X9699Y7179D01*
X9710Y7171D01*
X9722Y7166D01*
X9735Y7165D01*
X9748Y7166D01*
X9760Y7171D01*
X9771Y7179D01*
X9779Y7190D01*
X9782Y7199D01*
X9788D01*
X9791Y7190D01*
X9799Y7179D01*
X9810Y7171D01*
X9822Y7166D01*
X9835Y7165D01*
X9848Y7166D01*
X9860Y7171D01*
X9871Y7179D01*
X9879Y7190D01*
X9884Y7202D01*
X9885Y7215D01*
X9884Y7228D01*
X9879Y7240D01*
X9871Y7251D01*
X9860Y7259D01*
X9848Y7264D01*
X9835Y7265D01*
X9822Y7264D01*
X9810Y7259D01*
X9799Y7251D01*
X9791Y7240D01*
X9788Y7231D01*
X9782D01*
X9779Y7240D01*
X9771Y7251D01*
X9760Y7259D01*
X9748Y7264D01*
X9738Y7265D01*
Y7617D01*
X9744Y7621D01*
X9750Y7630D01*
X9754Y7640D01*
X9755Y7650D01*
X9754Y7660D01*
X9750Y7670D01*
X9748Y7673D01*
X9750Y7677D01*
X9775D01*
Y7763D01*
X9760D01*
Y7769D01*
X9771D01*
Y7861D01*
X9760D01*
Y7872D01*
X9780D01*
Y7958D01*
X9728D01*
X9718Y7968D01*
X9710Y7974D01*
X9700Y7975D01*
X9376D01*
X9365Y7986D01*
Y8005D01*
X9383D01*
Y8095D01*
D02*
G37*
G36*
X11075Y6065D02*
X11062Y6064D01*
X11050Y6059D01*
X11039Y6051D01*
X11031Y6040D01*
X11028Y6031D01*
X11022D01*
X11019Y6040D01*
X11011Y6051D01*
X11000Y6059D01*
X10988Y6064D01*
X10975Y6065D01*
X10962Y6064D01*
X10950Y6059D01*
X10939Y6051D01*
X10931Y6040D01*
X10926Y6028D01*
X10925Y6015D01*
X10926Y6002D01*
X10931Y5990D01*
X10938Y5981D01*
X10932Y5975D01*
X10673D01*
X10671Y5980D01*
X10679Y5990D01*
X10684Y6002D01*
X10685Y6015D01*
X10684Y6028D01*
X10679Y6040D01*
X10671Y6051D01*
X10660Y6059D01*
X10648Y6064D01*
X10635Y6065D01*
X10622Y6064D01*
X10610Y6059D01*
X10599Y6051D01*
X10591Y6040D01*
X10588Y6031D01*
X10582D01*
X10579Y6040D01*
X10571Y6051D01*
X10560Y6059D01*
X10548Y6064D01*
X10535Y6065D01*
X10522Y6064D01*
X10510Y6059D01*
X10499Y6051D01*
X10491Y6040D01*
X10486Y6028D01*
X10485Y6015D01*
X10486Y6002D01*
X10491Y5990D01*
X10498Y5981D01*
X10492Y5975D01*
X10233D01*
X10231Y5980D01*
X10239Y5990D01*
X10244Y6002D01*
X10245Y6015D01*
X10244Y6028D01*
X10239Y6040D01*
X10231Y6051D01*
X10220Y6059D01*
X10208Y6064D01*
X10195Y6065D01*
X10182Y6064D01*
X10170Y6059D01*
X10159Y6051D01*
X10151Y6040D01*
X10148Y6031D01*
X10142D01*
X10139Y6040D01*
X10131Y6051D01*
X10120Y6059D01*
X10108Y6064D01*
X10095Y6065D01*
X10082Y6064D01*
X10070Y6059D01*
X10059Y6051D01*
X10051Y6040D01*
X10046Y6028D01*
X10045Y6015D01*
X10046Y6002D01*
X10051Y5990D01*
X10058Y5981D01*
X10052Y5975D01*
X9793D01*
X9791Y5980D01*
X9799Y5990D01*
X9804Y6002D01*
X9805Y6015D01*
X9804Y6028D01*
X9799Y6040D01*
X9791Y6051D01*
X9780Y6059D01*
X9768Y6064D01*
X9755Y6065D01*
X9742Y6064D01*
X9730Y6059D01*
X9719Y6051D01*
X9711Y6040D01*
X9708Y6031D01*
X9702D01*
X9699Y6040D01*
X9691Y6051D01*
X9680Y6059D01*
X9668Y6064D01*
X9655Y6065D01*
X9642Y6064D01*
X9630Y6059D01*
X9619Y6051D01*
X9611Y6040D01*
X9606Y6028D01*
X9605Y6015D01*
X9606Y6002D01*
X9611Y5990D01*
X9618Y5981D01*
X9612Y5975D01*
X9353D01*
X9351Y5980D01*
X9359Y5990D01*
X9364Y6002D01*
X9365Y6015D01*
X9364Y6028D01*
X9359Y6040D01*
X9351Y6051D01*
X9340Y6059D01*
X9328Y6064D01*
X9315Y6065D01*
X9302Y6064D01*
X9290Y6059D01*
X9279Y6051D01*
X9271Y6040D01*
X9268Y6031D01*
X9262D01*
X9259Y6040D01*
X9251Y6051D01*
X9240Y6059D01*
X9228Y6064D01*
X9215Y6065D01*
X9202Y6064D01*
X9190Y6059D01*
X9179Y6051D01*
X9171Y6040D01*
X9166Y6028D01*
X9165Y6015D01*
X9166Y6002D01*
X9171Y5990D01*
X9178Y5981D01*
X9172Y5975D01*
X8913D01*
X8911Y5980D01*
X8919Y5990D01*
X8924Y6002D01*
X8925Y6015D01*
X8924Y6028D01*
X8919Y6040D01*
X8911Y6051D01*
X8900Y6059D01*
X8888Y6064D01*
X8875Y6065D01*
X8862Y6064D01*
X8850Y6059D01*
X8839Y6051D01*
X8831Y6040D01*
X8828Y6031D01*
X8822D01*
X8819Y6040D01*
X8811Y6051D01*
X8800Y6059D01*
X8788Y6064D01*
X8775Y6065D01*
X8762Y6064D01*
X8750Y6059D01*
X8739Y6051D01*
X8731Y6040D01*
X8726Y6028D01*
X8725Y6015D01*
X8726Y6002D01*
X8731Y5990D01*
X8738Y5981D01*
X8732Y5975D01*
X8473D01*
X8471Y5980D01*
X8479Y5990D01*
X8484Y6002D01*
X8485Y6015D01*
X8484Y6028D01*
X8479Y6040D01*
X8471Y6051D01*
X8460Y6059D01*
X8448Y6064D01*
X8435Y6065D01*
X8422Y6064D01*
X8410Y6059D01*
X8399Y6051D01*
X8391Y6040D01*
X8388Y6031D01*
X8382D01*
X8379Y6040D01*
X8371Y6051D01*
X8360Y6059D01*
X8348Y6064D01*
X8335Y6065D01*
X8322Y6064D01*
X8310Y6059D01*
X8299Y6051D01*
X8291Y6040D01*
X8286Y6028D01*
X8285Y6015D01*
X8286Y6002D01*
X8291Y5990D01*
X8299Y5979D01*
X8305Y5975D01*
Y5960D01*
X8306Y5952D01*
X8308Y5947D01*
X8309Y5945D01*
X8314Y5939D01*
X8329Y5924D01*
X8335Y5919D01*
X8337Y5918D01*
X8342Y5916D01*
X8350Y5915D01*
X11380D01*
X11388Y5916D01*
X11393Y5918D01*
X11395Y5919D01*
X11401Y5924D01*
X11426Y5949D01*
X11426Y5949D01*
X11429Y5952D01*
X11431Y5955D01*
X11434Y5962D01*
X11435Y5965D01*
X11455D01*
Y6065D01*
X11355D01*
Y5975D01*
X11113D01*
X11111Y5980D01*
X11119Y5990D01*
X11124Y6002D01*
X11125Y6015D01*
X11124Y6028D01*
X11119Y6040D01*
X11111Y6051D01*
X11100Y6059D01*
X11088Y6064D01*
X11075Y6065D01*
D02*
G37*
G36*
X8895Y8085D02*
X8885Y8084D01*
X8875Y8080D01*
X8866Y8074D01*
X8860Y8065D01*
X8856Y8055D01*
X8855Y8045D01*
X8856Y8035D01*
X8860Y8025D01*
X8866Y8016D01*
X8872Y8012D01*
Y6645D01*
Y6343D01*
X8866Y6339D01*
X8860Y6330D01*
X8856Y6320D01*
X8855Y6310D01*
X8856Y6300D01*
X8860Y6290D01*
X8866Y6281D01*
X8872Y6277D01*
Y6275D01*
X8874Y6266D01*
X8879Y6259D01*
X8894Y6244D01*
X8901Y6239D01*
X8910Y6237D01*
X8930D01*
Y6195D01*
X8945D01*
Y6175D01*
X9005D01*
Y6195D01*
X9020D01*
Y6285D01*
X8932D01*
X8929Y6289D01*
X8930Y6290D01*
X8934Y6300D01*
X8935Y6310D01*
X8934Y6320D01*
X8930Y6330D01*
X8924Y6339D01*
X8918Y6343D01*
Y6645D01*
Y8012D01*
X8924Y8016D01*
X8930Y8025D01*
X8934Y8035D01*
X8935Y8045D01*
X8934Y8055D01*
X8930Y8065D01*
X8924Y8074D01*
X8915Y8080D01*
X8905Y8084D01*
X8895Y8085D01*
D02*
G37*
G36*
X7840Y6108D02*
X7819Y6107D01*
X7798Y6102D01*
X7778Y6096D01*
X7759Y6086D01*
X7741Y6074D01*
X7725Y6060D01*
X7711Y6044D01*
X7699Y6026D01*
X7689Y6007D01*
X7683Y5987D01*
X7678Y5966D01*
X7677Y5945D01*
X7678Y5924D01*
X7683Y5903D01*
X7689Y5883D01*
X7699Y5864D01*
X7711Y5846D01*
X7725Y5830D01*
X7741Y5816D01*
X7759Y5804D01*
X7778Y5794D01*
X7798Y5788D01*
X7819Y5783D01*
X7840Y5782D01*
X7861Y5783D01*
X7882Y5788D01*
X7902Y5794D01*
X7921Y5804D01*
X7939Y5816D01*
X7955Y5830D01*
X7969Y5846D01*
X7981Y5864D01*
X7991Y5883D01*
X7997Y5903D01*
X8002Y5924D01*
X8003Y5945D01*
X8002Y5966D01*
X7997Y5987D01*
X7991Y6007D01*
X7981Y6026D01*
X7969Y6044D01*
X7955Y6060D01*
X7939Y6074D01*
X7921Y6086D01*
X7902Y6096D01*
X7882Y6102D01*
X7861Y6107D01*
X7840Y6108D01*
D02*
G37*
G36*
X11870D02*
X11849Y6107D01*
X11828Y6102D01*
X11808Y6096D01*
X11789Y6086D01*
X11771Y6074D01*
X11755Y6060D01*
X11741Y6044D01*
X11729Y6026D01*
X11719Y6007D01*
X11713Y5987D01*
X11708Y5966D01*
X11707Y5945D01*
X11708Y5924D01*
X11713Y5903D01*
X11719Y5883D01*
X11729Y5864D01*
X11741Y5846D01*
X11755Y5830D01*
X11771Y5816D01*
X11789Y5804D01*
X11808Y5794D01*
X11828Y5788D01*
X11849Y5783D01*
X11870Y5782D01*
X11891Y5783D01*
X11912Y5788D01*
X11932Y5794D01*
X11951Y5804D01*
X11969Y5816D01*
X11985Y5830D01*
X11999Y5846D01*
X12011Y5864D01*
X12021Y5883D01*
X12027Y5903D01*
X12032Y5924D01*
X12033Y5945D01*
X12032Y5966D01*
X12027Y5987D01*
X12021Y6007D01*
X12011Y6026D01*
X11999Y6044D01*
X11985Y6060D01*
X11969Y6074D01*
X11951Y6086D01*
X11932Y6096D01*
X11912Y6102D01*
X11891Y6107D01*
X11870Y6108D01*
D02*
G37*
G36*
X9335Y6655D02*
X9325Y6654D01*
X9315Y6650D01*
X9306Y6644D01*
X9300Y6635D01*
X9296Y6625D01*
X9295Y6615D01*
X9296Y6605D01*
X9300Y6595D01*
X9306Y6586D01*
X9312Y6582D01*
Y6570D01*
Y6343D01*
X9306Y6339D01*
X9300Y6330D01*
X9296Y6320D01*
X9295Y6310D01*
X9296Y6300D01*
X9300Y6290D01*
X9306Y6281D01*
X9312Y6277D01*
Y6275D01*
X9314Y6266D01*
X9319Y6259D01*
X9334Y6244D01*
X9341Y6239D01*
X9350Y6237D01*
X9370D01*
Y6195D01*
X9385D01*
Y6175D01*
X9445D01*
Y6195D01*
X9460D01*
Y6285D01*
X9372D01*
X9369Y6289D01*
X9370Y6290D01*
X9374Y6300D01*
X9375Y6310D01*
X9374Y6320D01*
X9370Y6330D01*
X9364Y6339D01*
X9358Y6343D01*
Y6582D01*
X9364Y6586D01*
X9370Y6595D01*
X9374Y6605D01*
X9375Y6615D01*
X9374Y6625D01*
X9370Y6635D01*
X9364Y6644D01*
X9355Y6650D01*
X9345Y6654D01*
X9335Y6655D01*
D02*
G37*
G36*
X11625Y6535D02*
X11615Y6534D01*
X11605Y6530D01*
X11596Y6524D01*
X11590Y6515D01*
X11586Y6505D01*
X11585Y6495D01*
X11586Y6485D01*
X11590Y6475D01*
X11595Y6469D01*
Y6461D01*
X11590Y6455D01*
X11586Y6445D01*
X11585Y6435D01*
X11586Y6425D01*
X11590Y6415D01*
X11595Y6409D01*
Y6408D01*
X11587Y6400D01*
X11440D01*
X11440Y6400D01*
X11433Y6399D01*
X11432Y6399D01*
X11429Y6398D01*
X11425Y6396D01*
X11419Y6391D01*
X11384Y6356D01*
X11379Y6350D01*
X11378Y6348D01*
X11376Y6343D01*
X11375Y6335D01*
Y6255D01*
X11369Y6251D01*
X11361Y6240D01*
X11356Y6228D01*
X11355Y6215D01*
X11356Y6202D01*
X11361Y6190D01*
X11369Y6179D01*
X11380Y6171D01*
X11392Y6166D01*
X11405Y6165D01*
X11418Y6166D01*
X11430Y6171D01*
X11441Y6179D01*
X11449Y6190D01*
X11454Y6202D01*
X11455Y6215D01*
X11454Y6228D01*
X11449Y6240D01*
X11441Y6251D01*
X11435Y6255D01*
Y6322D01*
X11453Y6340D01*
X11600D01*
X11608Y6341D01*
X11613Y6343D01*
X11615Y6344D01*
X11621Y6349D01*
X11646Y6374D01*
X11646Y6374D01*
X11649Y6377D01*
X11651Y6380D01*
X11654Y6387D01*
X11655Y6395D01*
Y6409D01*
X11660Y6415D01*
X11664Y6425D01*
X11665Y6435D01*
X11664Y6445D01*
X11660Y6455D01*
X11655Y6461D01*
Y6469D01*
X11660Y6475D01*
X11664Y6485D01*
X11665Y6495D01*
X11664Y6505D01*
X11660Y6515D01*
X11654Y6524D01*
X11645Y6530D01*
X11635Y6534D01*
X11625Y6535D01*
D02*
G37*
G36*
X11515Y6545D02*
X11310D01*
X11297Y6544D01*
X11285Y6540D01*
X11274Y6534D01*
X11264Y6526D01*
X11256Y6516D01*
X11250Y6505D01*
X11246Y6493D01*
X11245Y6480D01*
X11246Y6467D01*
X11250Y6455D01*
X11256Y6444D01*
X11264Y6434D01*
X11274Y6426D01*
X11285Y6420D01*
X11297Y6416D01*
X11310Y6415D01*
X11515D01*
X11528Y6416D01*
X11540Y6420D01*
X11551Y6426D01*
X11557Y6430D01*
X11565D01*
Y6438D01*
X11569Y6444D01*
X11575Y6455D01*
X11579Y6467D01*
X11580Y6480D01*
X11579Y6493D01*
X11575Y6505D01*
X11569Y6516D01*
X11565Y6522D01*
Y6530D01*
X11557D01*
X11551Y6534D01*
X11540Y6540D01*
X11528Y6544D01*
X11515Y6545D01*
D02*
G37*
G36*
X9775Y6795D02*
X9765Y6794D01*
X9755Y6790D01*
X9746Y6784D01*
X9740Y6775D01*
X9736Y6765D01*
X9735Y6755D01*
X9736Y6745D01*
X9740Y6735D01*
X9746Y6726D01*
X9752Y6722D01*
Y6605D01*
Y6343D01*
X9746Y6339D01*
X9740Y6330D01*
X9736Y6320D01*
X9735Y6310D01*
X9736Y6300D01*
X9740Y6290D01*
X9746Y6281D01*
X9752Y6277D01*
Y6275D01*
X9754Y6266D01*
X9759Y6259D01*
X9774Y6244D01*
X9781Y6239D01*
X9790Y6237D01*
X9810D01*
Y6195D01*
X9825D01*
Y6175D01*
X9885D01*
Y6195D01*
X9900D01*
Y6285D01*
X9812D01*
X9809Y6289D01*
X9810Y6290D01*
X9814Y6300D01*
X9815Y6310D01*
X9814Y6320D01*
X9810Y6330D01*
X9804Y6339D01*
X9798Y6343D01*
Y6605D01*
Y6722D01*
X9804Y6726D01*
X9810Y6735D01*
X9814Y6745D01*
X9815Y6755D01*
X9814Y6765D01*
X9810Y6775D01*
X9804Y6784D01*
X9795Y6790D01*
X9785Y6794D01*
X9775Y6795D01*
D02*
G37*
G36*
X11095Y6550D02*
X11085Y6549D01*
X11075Y6545D01*
X11066Y6539D01*
X11060Y6530D01*
X11056Y6520D01*
X11055Y6510D01*
X11056Y6500D01*
X11060Y6490D01*
X11066Y6481D01*
X11072Y6477D01*
Y6343D01*
X11066Y6339D01*
X11060Y6330D01*
X11056Y6320D01*
X11055Y6310D01*
X11056Y6300D01*
X11060Y6290D01*
X11066Y6281D01*
X11072Y6277D01*
Y6275D01*
X11074Y6266D01*
X11079Y6259D01*
X11094Y6244D01*
X11101Y6239D01*
X11110Y6237D01*
X11130D01*
Y6195D01*
X11145D01*
Y6175D01*
X11205D01*
Y6195D01*
X11220D01*
Y6285D01*
X11132D01*
X11129Y6289D01*
X11130Y6290D01*
X11134Y6300D01*
X11135Y6310D01*
X11134Y6320D01*
X11130Y6330D01*
X11124Y6339D01*
X11118Y6343D01*
Y6477D01*
X11124Y6481D01*
X11130Y6490D01*
X11134Y6500D01*
X11135Y6510D01*
X11134Y6520D01*
X11130Y6530D01*
X11124Y6539D01*
X11115Y6545D01*
X11105Y6549D01*
X11095Y6550D01*
D02*
G37*
G36*
X9240Y7695D02*
X9227Y7694D01*
X9215Y7689D01*
X9204Y7681D01*
X9196Y7670D01*
X9191Y7658D01*
X9190Y7645D01*
X9191Y7632D01*
X9196Y7620D01*
X9204Y7609D01*
X9215Y7601D01*
X9227Y7596D01*
X9240Y7595D01*
X9253Y7596D01*
X9265Y7601D01*
X9276Y7609D01*
X9284Y7620D01*
X9289Y7632D01*
X9290Y7645D01*
X9289Y7658D01*
X9284Y7670D01*
X9276Y7681D01*
X9265Y7689D01*
X9253Y7694D01*
X9240Y7695D01*
D02*
G37*
G36*
X11400Y8860D02*
X11387Y8859D01*
X11375Y8854D01*
X11364Y8846D01*
X11356Y8835D01*
X11351Y8823D01*
X11350Y8810D01*
X11351Y8797D01*
X11356Y8785D01*
X11360Y8781D01*
X11360Y8780D01*
Y8745D01*
X11360Y8744D01*
Y8730D01*
X11360Y8730D01*
X11360Y8730D01*
Y8672D01*
X11360Y8671D01*
X11360Y8671D01*
Y8615D01*
X11360Y8615D01*
X11360Y8615D01*
Y8590D01*
X11361Y8584D01*
X11364Y8579D01*
X11369Y8576D01*
X11375Y8575D01*
X11400D01*
X11400Y8575D01*
X11400Y8575D01*
X11430D01*
X11436Y8576D01*
X11441Y8579D01*
X11444Y8584D01*
X11445Y8590D01*
Y8754D01*
X11445Y8755D01*
Y8789D01*
X11449Y8797D01*
X11450Y8810D01*
X11449Y8823D01*
X11444Y8835D01*
X11436Y8846D01*
X11425Y8854D01*
X11413Y8859D01*
X11400Y8860D01*
D02*
G37*
G36*
X8705Y8585D02*
X8705Y8585D01*
X8655D01*
X8655Y8585D01*
X8655Y8585D01*
X8605D01*
X8605Y8585D01*
X8605Y8585D01*
X8580D01*
X8574Y8584D01*
X8569Y8581D01*
X8566Y8576D01*
X8565Y8570D01*
Y8545D01*
X8565Y8545D01*
X8565Y8545D01*
Y8520D01*
X8566Y8514D01*
X8569Y8509D01*
X8574Y8506D01*
X8580Y8505D01*
X8605D01*
X8605Y8505D01*
X8605Y8505D01*
X8608D01*
X8625Y8487D01*
Y6538D01*
X8608Y6520D01*
X8605D01*
X8605Y6520D01*
X8605Y6520D01*
X8580D01*
X8579Y6520D01*
X8575Y6523D01*
Y6609D01*
X8579Y6611D01*
X8585Y6620D01*
X8589Y6630D01*
X8590Y6640D01*
X8589Y6650D01*
X8585Y6660D01*
X8579Y6669D01*
X8575Y6671D01*
Y7054D01*
X8579Y7056D01*
X8585Y7065D01*
X8589Y7075D01*
X8590Y7085D01*
X8589Y7095D01*
X8585Y7105D01*
X8579Y7114D01*
X8570Y7120D01*
X8560Y7124D01*
X8550Y7125D01*
X8540Y7124D01*
X8530Y7120D01*
X8521Y7114D01*
X8515Y7105D01*
X8511Y7095D01*
X8510Y7085D01*
X8511Y7075D01*
X8515Y7065D01*
X8521Y7056D01*
X8525Y7054D01*
Y6671D01*
X8521Y6669D01*
X8515Y6660D01*
X8511Y6650D01*
X8510Y6640D01*
X8511Y6630D01*
X8515Y6620D01*
X8521Y6611D01*
X8525Y6609D01*
Y6436D01*
X8521Y6434D01*
X8515Y6425D01*
X8511Y6415D01*
X8510Y6405D01*
X8511Y6395D01*
X8515Y6385D01*
X8521Y6376D01*
X8530Y6370D01*
X8540Y6366D01*
X8550Y6365D01*
X8560Y6366D01*
X8570Y6370D01*
X8579Y6376D01*
X8585Y6385D01*
X8589Y6395D01*
X8590Y6405D01*
X8589Y6415D01*
X8585Y6425D01*
X8579Y6434D01*
X8579Y6439D01*
X8580Y6440D01*
X8580Y6440D01*
X8605D01*
X8605Y6440D01*
X8605Y6440D01*
X8655D01*
X8655Y6440D01*
X8655Y6440D01*
X8705D01*
X8705Y6440D01*
X8705Y6440D01*
X8730D01*
X8736Y6441D01*
X8741Y6444D01*
X8744Y6449D01*
X8745Y6455D01*
Y6480D01*
X8745Y6480D01*
X8745Y6480D01*
Y6505D01*
X8744Y6511D01*
X8741Y6516D01*
X8736Y6519D01*
X8730Y6520D01*
X8705D01*
X8705Y6520D01*
X8705Y6520D01*
X8702D01*
X8685Y6538D01*
Y8487D01*
X8702Y8505D01*
X8705D01*
X8705Y8505D01*
X8705Y8505D01*
X8730D01*
X8736Y8506D01*
X8741Y8509D01*
X8744Y8514D01*
X8745Y8520D01*
Y8545D01*
X8745Y8545D01*
X8745Y8545D01*
Y8570D01*
X8744Y8576D01*
X8741Y8581D01*
X8736Y8584D01*
X8730Y8585D01*
X8705D01*
X8705Y8585D01*
D02*
G37*
G36*
X9680Y8830D02*
X9620D01*
Y8810D01*
X9605D01*
Y8720D01*
X9687D01*
X9690Y8717D01*
X9690Y8715D01*
X9691Y8705D01*
X9695Y8695D01*
X9701Y8686D01*
X9707Y8682D01*
Y8538D01*
X9701Y8534D01*
X9695Y8525D01*
X9691Y8515D01*
X9690Y8505D01*
X9691Y8495D01*
X9695Y8485D01*
X9701Y8476D01*
X9710Y8470D01*
X9720Y8466D01*
X9730Y8465D01*
X9740Y8466D01*
X9750Y8470D01*
X9759Y8476D01*
X9765Y8485D01*
X9769Y8495D01*
X9770Y8505D01*
X9769Y8515D01*
X9765Y8525D01*
X9759Y8534D01*
X9753Y8538D01*
Y8682D01*
X9759Y8686D01*
X9765Y8695D01*
X9769Y8705D01*
X9770Y8715D01*
X9769Y8725D01*
X9765Y8735D01*
X9759Y8744D01*
X9753Y8748D01*
Y8750D01*
X9751Y8759D01*
X9746Y8766D01*
X9731Y8781D01*
X9724Y8786D01*
X9715Y8788D01*
X9695D01*
Y8810D01*
X9680D01*
Y8830D01*
D02*
G37*
G36*
X11000D02*
X10940D01*
Y8810D01*
X10925D01*
Y8720D01*
X11007D01*
X11010Y8717D01*
X11010Y8715D01*
X11011Y8705D01*
X11015Y8695D01*
X11021Y8686D01*
X11027Y8682D01*
Y8543D01*
X11021Y8539D01*
X11015Y8530D01*
X11011Y8520D01*
X11010Y8510D01*
X11011Y8500D01*
X11015Y8490D01*
X11021Y8481D01*
X11030Y8475D01*
X11040Y8471D01*
X11050Y8470D01*
X11060Y8471D01*
X11070Y8475D01*
X11079Y8481D01*
X11085Y8490D01*
X11089Y8500D01*
X11090Y8510D01*
X11089Y8520D01*
X11085Y8530D01*
X11079Y8539D01*
X11073Y8543D01*
Y8682D01*
X11079Y8686D01*
X11085Y8695D01*
X11089Y8705D01*
X11090Y8715D01*
X11089Y8725D01*
X11085Y8735D01*
X11079Y8744D01*
X11073Y8748D01*
Y8750D01*
X11071Y8759D01*
X11066Y8766D01*
X11051Y8781D01*
X11044Y8786D01*
X11035Y8788D01*
X11015D01*
Y8810D01*
X11000D01*
Y8830D01*
D02*
G37*
G36*
X9194Y8690D02*
X9193Y8690D01*
X9135D01*
X9135Y8690D01*
X9135Y8690D01*
X9079D01*
X9079Y8690D01*
X9078Y8690D01*
X9054D01*
X9048Y8689D01*
X9043Y8686D01*
X9040Y8681D01*
X9038Y8675D01*
Y8650D01*
X9038Y8650D01*
X9038Y8650D01*
Y8620D01*
X9040Y8614D01*
X9043Y8609D01*
X9048Y8606D01*
X9054Y8605D01*
X9093D01*
X9105Y8592D01*
Y8180D01*
X9106Y8172D01*
X9108Y8167D01*
X9109Y8165D01*
X9114Y8159D01*
X9144Y8129D01*
X9150Y8124D01*
X9152Y8123D01*
X9157Y8121D01*
X9165Y8120D01*
X9297D01*
Y8105D01*
X9383D01*
Y8125D01*
X9395D01*
Y8105D01*
X9410D01*
Y8095D01*
X9395D01*
Y8005D01*
X9485D01*
Y8025D01*
X9495D01*
Y8005D01*
X9585D01*
Y8025D01*
X9595D01*
Y8005D01*
X9685D01*
Y8095D01*
X9670D01*
Y8105D01*
X9685D01*
Y8195D01*
X9671D01*
X9669Y8200D01*
X9676Y8204D01*
X9684Y8215D01*
X9687Y8224D01*
X9693D01*
X9696Y8215D01*
X9704Y8204D01*
X9715Y8196D01*
X9727Y8191D01*
X9740Y8190D01*
X9753Y8191D01*
X9765Y8196D01*
X9776Y8204D01*
X9784Y8215D01*
X9787Y8224D01*
X9793D01*
X9796Y8215D01*
X9804Y8204D01*
X9815Y8196D01*
X9827Y8191D01*
X9840Y8190D01*
X9853Y8191D01*
X9865Y8196D01*
X9876Y8204D01*
X9884Y8215D01*
X9889Y8227D01*
X9890Y8240D01*
X9889Y8253D01*
X9884Y8265D01*
X9876Y8276D01*
X9865Y8284D01*
X9853Y8289D01*
X9840Y8290D01*
X9827Y8289D01*
X9815Y8284D01*
X9804Y8276D01*
X9796Y8265D01*
X9793Y8256D01*
X9787D01*
X9784Y8265D01*
X9776Y8276D01*
X9765Y8284D01*
X9753Y8289D01*
X9740Y8290D01*
X9727Y8289D01*
X9715Y8284D01*
X9704Y8276D01*
X9696Y8265D01*
X9693Y8256D01*
X9687D01*
X9684Y8265D01*
X9676Y8276D01*
X9665Y8284D01*
X9653Y8289D01*
X9640Y8290D01*
X9627Y8289D01*
X9615Y8284D01*
X9604Y8276D01*
X9596Y8265D01*
X9591Y8253D01*
X9590Y8240D01*
X9591Y8227D01*
X9596Y8215D01*
X9604Y8204D01*
X9611Y8200D01*
X9609Y8195D01*
X9595D01*
Y8105D01*
X9610D01*
Y8095D01*
X9595D01*
Y8075D01*
X9585D01*
Y8095D01*
X9570D01*
Y8115D01*
X9510D01*
Y8095D01*
X9495D01*
Y8075D01*
X9485D01*
Y8095D01*
X9470D01*
Y8105D01*
X9485D01*
Y8195D01*
X9395D01*
Y8175D01*
X9383D01*
Y8190D01*
X9390D01*
Y8290D01*
X9290D01*
Y8190D01*
X9297D01*
Y8180D01*
X9178D01*
X9165Y8193D01*
Y8592D01*
X9177Y8605D01*
X9219D01*
X9225Y8606D01*
X9230Y8609D01*
X9233Y8614D01*
X9234Y8620D01*
Y8650D01*
X9234Y8650D01*
X9234Y8650D01*
Y8675D01*
X9233Y8681D01*
X9230Y8686D01*
X9225Y8689D01*
X9219Y8690D01*
X9194D01*
X9194Y8690D01*
D02*
G37*
G36*
X11870Y9228D02*
X11849Y9227D01*
X11828Y9222D01*
X11808Y9216D01*
X11789Y9206D01*
X11771Y9194D01*
X11755Y9180D01*
X11741Y9164D01*
X11729Y9146D01*
X11719Y9127D01*
X11713Y9107D01*
X11708Y9086D01*
X11707Y9065D01*
X11708Y9044D01*
X11713Y9023D01*
X11719Y9003D01*
X11729Y8984D01*
X11741Y8966D01*
X11755Y8950D01*
X11771Y8936D01*
X11789Y8924D01*
X11808Y8914D01*
X11828Y8908D01*
X11849Y8903D01*
X11870Y8902D01*
X11891Y8903D01*
X11912Y8908D01*
X11932Y8914D01*
X11951Y8924D01*
X11969Y8936D01*
X11985Y8950D01*
X11999Y8966D01*
X12011Y8984D01*
X12021Y9003D01*
X12027Y9023D01*
X12032Y9044D01*
X12033Y9065D01*
X12032Y9086D01*
X12027Y9107D01*
X12021Y9127D01*
X12011Y9146D01*
X11999Y9164D01*
X11985Y9180D01*
X11969Y9194D01*
X11951Y9206D01*
X11932Y9216D01*
X11912Y9222D01*
X11891Y9227D01*
X11870Y9228D01*
D02*
G37*
G36*
X11375Y9110D02*
X8545D01*
X8537Y9109D01*
X8532Y9107D01*
X8530Y9106D01*
X8524Y9101D01*
X8509Y9086D01*
X8504Y9080D01*
X8503Y9078D01*
X8501Y9073D01*
X8500Y9065D01*
Y9050D01*
X8494Y9046D01*
X8486Y9035D01*
X8483Y9026D01*
X8477D01*
X8474Y9035D01*
X8466Y9046D01*
X8455Y9054D01*
X8443Y9059D01*
X8430Y9060D01*
X8417Y9059D01*
X8405Y9054D01*
X8394Y9046D01*
X8386Y9035D01*
X8381Y9023D01*
X8380Y9010D01*
X8381Y8997D01*
X8386Y8985D01*
X8394Y8974D01*
X8405Y8966D01*
X8417Y8961D01*
X8430Y8960D01*
X8443Y8961D01*
X8455Y8966D01*
X8466Y8974D01*
X8474Y8985D01*
X8477Y8994D01*
X8483D01*
X8486Y8985D01*
X8494Y8974D01*
X8505Y8966D01*
X8517Y8961D01*
X8530Y8960D01*
X8543Y8961D01*
X8555Y8966D01*
X8566Y8974D01*
X8574Y8985D01*
X8579Y8997D01*
X8580Y9010D01*
X8579Y9023D01*
X8574Y9035D01*
X8566Y9045D01*
X8568Y9050D01*
X8832D01*
X8834Y9045D01*
X8826Y9035D01*
X8821Y9023D01*
X8820Y9010D01*
X8821Y8997D01*
X8826Y8985D01*
X8834Y8974D01*
X8845Y8966D01*
X8857Y8961D01*
X8870Y8960D01*
X8883Y8961D01*
X8895Y8966D01*
X8906Y8974D01*
X8914Y8985D01*
X8917Y8994D01*
X8923D01*
X8926Y8985D01*
X8934Y8974D01*
X8945Y8966D01*
X8957Y8961D01*
X8970Y8960D01*
X8983Y8961D01*
X8995Y8966D01*
X9006Y8974D01*
X9014Y8985D01*
X9019Y8997D01*
X9020Y9010D01*
X9019Y9023D01*
X9014Y9035D01*
X9007Y9044D01*
X9013Y9050D01*
X9272D01*
X9274Y9045D01*
X9266Y9035D01*
X9261Y9023D01*
X9260Y9010D01*
X9261Y8997D01*
X9266Y8985D01*
X9274Y8974D01*
X9285Y8966D01*
X9297Y8961D01*
X9310Y8960D01*
X9323Y8961D01*
X9335Y8966D01*
X9346Y8974D01*
X9354Y8985D01*
X9357Y8994D01*
X9363D01*
X9366Y8985D01*
X9374Y8974D01*
X9385Y8966D01*
X9397Y8961D01*
X9410Y8960D01*
X9423Y8961D01*
X9435Y8966D01*
X9446Y8974D01*
X9454Y8985D01*
X9459Y8997D01*
X9460Y9010D01*
X9459Y9023D01*
X9454Y9035D01*
X9447Y9044D01*
X9453Y9050D01*
X9712D01*
X9714Y9045D01*
X9706Y9035D01*
X9701Y9023D01*
X9700Y9010D01*
X9701Y8997D01*
X9706Y8985D01*
X9714Y8974D01*
X9725Y8966D01*
X9737Y8961D01*
X9750Y8960D01*
X9763Y8961D01*
X9775Y8966D01*
X9786Y8974D01*
X9794Y8985D01*
X9797Y8994D01*
X9803D01*
X9806Y8985D01*
X9814Y8974D01*
X9825Y8966D01*
X9837Y8961D01*
X9850Y8960D01*
X9863Y8961D01*
X9875Y8966D01*
X9886Y8974D01*
X9894Y8985D01*
X9899Y8997D01*
X9900Y9010D01*
X9899Y9023D01*
X9894Y9035D01*
X9887Y9044D01*
X9893Y9050D01*
X10152D01*
X10154Y9045D01*
X10146Y9035D01*
X10141Y9023D01*
X10140Y9010D01*
X10141Y8997D01*
X10146Y8985D01*
X10154Y8974D01*
X10165Y8966D01*
X10177Y8961D01*
X10190Y8960D01*
X10203Y8961D01*
X10215Y8966D01*
X10226Y8974D01*
X10234Y8985D01*
X10237Y8994D01*
X10243D01*
X10246Y8985D01*
X10254Y8974D01*
X10265Y8966D01*
X10277Y8961D01*
X10290Y8960D01*
X10303Y8961D01*
X10315Y8966D01*
X10326Y8974D01*
X10334Y8985D01*
X10339Y8997D01*
X10340Y9010D01*
X10339Y9023D01*
X10334Y9035D01*
X10327Y9044D01*
X10333Y9050D01*
X10592D01*
X10594Y9045D01*
X10586Y9035D01*
X10581Y9023D01*
X10580Y9010D01*
X10581Y8997D01*
X10586Y8985D01*
X10594Y8974D01*
X10605Y8966D01*
X10617Y8961D01*
X10630Y8960D01*
X10643Y8961D01*
X10655Y8966D01*
X10666Y8974D01*
X10674Y8985D01*
X10677Y8994D01*
X10683D01*
X10686Y8985D01*
X10694Y8974D01*
X10705Y8966D01*
X10717Y8961D01*
X10730Y8960D01*
X10743Y8961D01*
X10755Y8966D01*
X10766Y8974D01*
X10774Y8985D01*
X10779Y8997D01*
X10780Y9010D01*
X10779Y9023D01*
X10774Y9035D01*
X10767Y9044D01*
X10773Y9050D01*
X11032D01*
X11034Y9045D01*
X11026Y9035D01*
X11021Y9023D01*
X11020Y9010D01*
X11021Y8997D01*
X11026Y8985D01*
X11034Y8974D01*
X11045Y8966D01*
X11057Y8961D01*
X11070Y8960D01*
X11083Y8961D01*
X11095Y8966D01*
X11106Y8974D01*
X11114Y8985D01*
X11117Y8994D01*
X11123D01*
X11126Y8985D01*
X11134Y8974D01*
X11145Y8966D01*
X11157Y8961D01*
X11170Y8960D01*
X11183Y8961D01*
X11195Y8966D01*
X11206Y8974D01*
X11214Y8985D01*
X11219Y8997D01*
X11220Y9010D01*
X11219Y9023D01*
X11214Y9035D01*
X11207Y9044D01*
X11213Y9050D01*
X11350D01*
Y8960D01*
X11450D01*
Y9060D01*
X11430D01*
X11429Y9063D01*
X11426Y9070D01*
X11424Y9073D01*
X11421Y9076D01*
X11421Y9076D01*
X11396Y9101D01*
X11390Y9106D01*
X11388Y9107D01*
X11383Y9109D01*
X11375Y9110D01*
D02*
G37*
G36*
X10959Y8690D02*
X10958Y8690D01*
X10900D01*
X10900Y8690D01*
X10900Y8690D01*
X10844D01*
X10844Y8690D01*
X10843Y8690D01*
X10819D01*
X10813Y8689D01*
X10808Y8686D01*
X10805Y8681D01*
X10803Y8675D01*
Y8650D01*
X10803Y8650D01*
X10803Y8650D01*
Y8620D01*
X10805Y8614D01*
X10808Y8609D01*
X10813Y8606D01*
X10819Y8605D01*
X10858D01*
X10870Y8592D01*
Y8265D01*
Y8230D01*
Y8195D01*
Y7700D01*
Y7186D01*
X10865Y7180D01*
X10861Y7170D01*
X10860Y7160D01*
X10861Y7150D01*
X10865Y7140D01*
X10870Y7134D01*
Y7131D01*
X10865Y7125D01*
X10861Y7115D01*
X10860Y7105D01*
X10861Y7095D01*
X10865Y7085D01*
X10871Y7076D01*
X10880Y7070D01*
X10890Y7066D01*
X10900Y7065D01*
X10910Y7066D01*
X10920Y7070D01*
X10929Y7076D01*
X10935Y7085D01*
X10939Y7095D01*
X10940Y7105D01*
X10939Y7115D01*
X10935Y7125D01*
X10930Y7131D01*
Y7134D01*
X10935Y7140D01*
X10939Y7150D01*
X10940Y7160D01*
X10939Y7170D01*
X10935Y7180D01*
X10930Y7186D01*
Y7637D01*
X10938Y7645D01*
X11014D01*
X11015Y7644D01*
Y7615D01*
X10997D01*
Y7525D01*
X11083D01*
Y7545D01*
X11309D01*
X11335Y7519D01*
Y7401D01*
X11331Y7399D01*
X11325Y7390D01*
X11321Y7380D01*
X11320Y7370D01*
X11321Y7360D01*
X11325Y7350D01*
X11331Y7341D01*
X11340Y7335D01*
X11350Y7331D01*
X11360Y7330D01*
X11370Y7331D01*
X11380Y7335D01*
X11389Y7341D01*
X11395Y7350D01*
X11399Y7360D01*
X11400Y7370D01*
X11399Y7380D01*
X11395Y7390D01*
X11389Y7399D01*
X11385Y7401D01*
Y7530D01*
X11384Y7540D01*
X11378Y7548D01*
X11338Y7588D01*
X11330Y7594D01*
X11320Y7595D01*
X11083D01*
Y7615D01*
X11065D01*
Y7644D01*
X11069Y7646D01*
X11075Y7655D01*
X11079Y7665D01*
X11080Y7675D01*
X11079Y7685D01*
X11075Y7695D01*
X11069Y7704D01*
X11060Y7710D01*
X11050Y7714D01*
X11040Y7715D01*
X11030Y7714D01*
X11020Y7710D01*
X11014Y7705D01*
X10938D01*
X10930Y7713D01*
Y8182D01*
X10948Y8200D01*
X11014D01*
X11015Y8199D01*
Y8170D01*
X10997D01*
Y8080D01*
X11083D01*
Y8100D01*
X11309D01*
X11335Y8074D01*
Y7956D01*
X11331Y7954D01*
X11325Y7945D01*
X11321Y7935D01*
X11320Y7925D01*
X11321Y7915D01*
X11325Y7905D01*
X11331Y7896D01*
X11340Y7890D01*
X11350Y7886D01*
X11360Y7885D01*
X11370Y7886D01*
X11380Y7890D01*
X11389Y7896D01*
X11395Y7905D01*
X11399Y7915D01*
X11400Y7925D01*
X11399Y7935D01*
X11395Y7945D01*
X11389Y7954D01*
X11385Y7956D01*
Y8085D01*
X11384Y8095D01*
X11378Y8103D01*
X11338Y8143D01*
X11330Y8149D01*
X11320Y8150D01*
X11083D01*
Y8170D01*
X11065D01*
Y8199D01*
X11069Y8201D01*
X11075Y8210D01*
X11079Y8220D01*
X11080Y8230D01*
X11079Y8240D01*
X11075Y8250D01*
X11069Y8259D01*
X11060Y8265D01*
X11050Y8269D01*
X11040Y8270D01*
X11030Y8269D01*
X11020Y8265D01*
X11014Y8260D01*
X10948D01*
X10930Y8278D01*
Y8592D01*
X10942Y8605D01*
X10984D01*
X10990Y8606D01*
X10995Y8609D01*
X10998Y8614D01*
X10999Y8620D01*
Y8650D01*
X10999Y8650D01*
X10999Y8650D01*
Y8675D01*
X10998Y8681D01*
X10995Y8686D01*
X10990Y8689D01*
X10984Y8690D01*
X10959D01*
X10959Y8690D01*
D02*
G37*
G36*
X7840Y9228D02*
X7819Y9227D01*
X7798Y9222D01*
X7778Y9216D01*
X7759Y9206D01*
X7741Y9194D01*
X7725Y9180D01*
X7711Y9164D01*
X7699Y9146D01*
X7689Y9127D01*
X7683Y9107D01*
X7678Y9086D01*
X7677Y9065D01*
X7678Y9044D01*
X7683Y9023D01*
X7689Y9003D01*
X7699Y8984D01*
X7711Y8966D01*
X7725Y8950D01*
X7741Y8936D01*
X7759Y8924D01*
X7778Y8914D01*
X7798Y8908D01*
X7819Y8903D01*
X7840Y8902D01*
X7861Y8903D01*
X7882Y8908D01*
X7902Y8914D01*
X7921Y8924D01*
X7939Y8936D01*
X7955Y8950D01*
X7969Y8966D01*
X7981Y8984D01*
X7991Y9003D01*
X7997Y9023D01*
X8002Y9044D01*
X8003Y9065D01*
X8002Y9086D01*
X7997Y9107D01*
X7991Y9127D01*
X7981Y9146D01*
X7969Y9164D01*
X7955Y9180D01*
X7939Y9194D01*
X7921Y9206D01*
X7902Y9216D01*
X7882Y9222D01*
X7861Y9227D01*
X7840Y9228D01*
D02*
G37*
G36*
X9240Y8830D02*
X9180D01*
Y8810D01*
X9165D01*
Y8720D01*
X9247D01*
X9250Y8717D01*
X9250Y8715D01*
X9251Y8705D01*
X9255Y8695D01*
X9261Y8686D01*
X9267Y8682D01*
Y8505D01*
Y8488D01*
X9261Y8484D01*
X9255Y8475D01*
X9251Y8465D01*
X9250Y8455D01*
X9251Y8445D01*
X9255Y8435D01*
X9261Y8426D01*
X9270Y8420D01*
X9280Y8416D01*
X9290Y8415D01*
X9300Y8416D01*
X9310Y8420D01*
X9319Y8426D01*
X9325Y8435D01*
X9329Y8445D01*
X9330Y8455D01*
X9329Y8465D01*
X9325Y8475D01*
X9319Y8484D01*
X9313Y8488D01*
Y8505D01*
Y8682D01*
X9319Y8686D01*
X9325Y8695D01*
X9329Y8705D01*
X9330Y8715D01*
X9329Y8725D01*
X9325Y8735D01*
X9319Y8744D01*
X9313Y8748D01*
Y8750D01*
X9311Y8759D01*
X9306Y8766D01*
X9291Y8781D01*
X9284Y8786D01*
X9275Y8788D01*
X9255D01*
Y8810D01*
X9240D01*
Y8830D01*
D02*
G37*
G36*
X10680Y8550D02*
X10670Y8549D01*
X10660Y8545D01*
X10651Y8539D01*
X10645Y8530D01*
X10641Y8520D01*
X10640Y8510D01*
X10641Y8500D01*
X10645Y8490D01*
X10651Y8481D01*
X10657Y8477D01*
Y7908D01*
X10651Y7904D01*
X10645Y7895D01*
X10641Y7885D01*
X10640Y7875D01*
X10641Y7865D01*
X10645Y7855D01*
X10651Y7846D01*
X10660Y7840D01*
X10670Y7836D01*
X10680Y7835D01*
X10690Y7836D01*
X10700Y7840D01*
X10709Y7846D01*
X10715Y7855D01*
X10719Y7865D01*
X10720Y7875D01*
X10719Y7885D01*
X10715Y7895D01*
X10709Y7904D01*
X10703Y7908D01*
Y8477D01*
X10709Y8481D01*
X10715Y8490D01*
X10719Y8500D01*
X10720Y8510D01*
X10719Y8520D01*
X10715Y8530D01*
X10709Y8539D01*
X10700Y8545D01*
X10690Y8549D01*
X10680Y8550D01*
D02*
G37*
G36*
X10560Y8830D02*
X10500D01*
Y8810D01*
X10485D01*
Y8720D01*
X10567D01*
X10570Y8717D01*
X10570Y8715D01*
X10571Y8705D01*
X10575Y8695D01*
X10581Y8686D01*
X10587Y8682D01*
Y8505D01*
Y7973D01*
X10580Y7970D01*
X10571Y7964D01*
X10565Y7955D01*
X10561Y7945D01*
X10560Y7935D01*
X10561Y7925D01*
X10565Y7915D01*
X10571Y7906D01*
X10580Y7900D01*
X10590Y7896D01*
X10600Y7895D01*
X10610Y7896D01*
X10620Y7900D01*
X10629Y7906D01*
X10635Y7915D01*
X10639Y7925D01*
X10640Y7935D01*
X10639Y7945D01*
X10635Y7955D01*
X10633Y7958D01*
Y8505D01*
Y8682D01*
X10639Y8686D01*
X10645Y8695D01*
X10649Y8705D01*
X10650Y8715D01*
X10649Y8725D01*
X10645Y8735D01*
X10639Y8744D01*
X10633Y8748D01*
Y8750D01*
X10631Y8759D01*
X10626Y8766D01*
X10611Y8781D01*
X10604Y8786D01*
X10595Y8788D01*
X10575D01*
Y8810D01*
X10560D01*
Y8830D01*
D02*
G37*
G36*
X8360D02*
X8300D01*
Y8810D01*
X8285D01*
Y8720D01*
X8367D01*
X8370Y8717D01*
X8370Y8715D01*
X8371Y8705D01*
X8375Y8695D01*
X8381Y8686D01*
X8387Y8682D01*
Y8173D01*
X8381Y8169D01*
X8375Y8160D01*
X8371Y8150D01*
X8370Y8140D01*
X8371Y8130D01*
X8375Y8120D01*
X8381Y8111D01*
X8390Y8105D01*
X8400Y8101D01*
X8410Y8100D01*
X8416Y8100D01*
X8420Y8096D01*
X8420Y8090D01*
X8421Y8080D01*
X8425Y8070D01*
X8431Y8061D01*
X8432Y8061D01*
Y7721D01*
X8427Y7719D01*
X8424Y7724D01*
X8415Y7730D01*
X8405Y7734D01*
X8395Y7735D01*
X8385Y7734D01*
X8375Y7730D01*
X8366Y7724D01*
X8360Y7715D01*
X8356Y7705D01*
X8355Y7695D01*
X8356Y7685D01*
X8360Y7675D01*
X8366Y7666D01*
X8372Y7662D01*
Y7478D01*
X8366Y7474D01*
X8360Y7465D01*
X8356Y7455D01*
X8355Y7445D01*
X8356Y7435D01*
X8360Y7425D01*
X8366Y7416D01*
X8375Y7410D01*
X8385Y7406D01*
X8395Y7405D01*
X8405Y7406D01*
X8415Y7410D01*
X8424Y7416D01*
X8427Y7421D01*
X8432Y7419D01*
Y6680D01*
Y6670D01*
Y6343D01*
X8426Y6339D01*
X8420Y6330D01*
X8416Y6320D01*
X8415Y6310D01*
X8416Y6300D01*
X8420Y6290D01*
X8426Y6281D01*
X8432Y6277D01*
Y6275D01*
X8434Y6266D01*
X8439Y6259D01*
X8454Y6244D01*
X8461Y6239D01*
X8470Y6237D01*
X8490D01*
Y6195D01*
X8505D01*
Y6175D01*
X8565D01*
Y6195D01*
X8580D01*
Y6285D01*
X8492D01*
X8489Y6289D01*
X8490Y6290D01*
X8494Y6300D01*
X8495Y6310D01*
X8494Y6320D01*
X8490Y6330D01*
X8484Y6339D01*
X8478Y6343D01*
Y6680D01*
Y8054D01*
X8480Y8055D01*
X8489Y8061D01*
X8495Y8070D01*
X8499Y8080D01*
X8500Y8090D01*
X8499Y8100D01*
X8495Y8110D01*
X8489Y8119D01*
X8480Y8125D01*
X8470Y8129D01*
X8460Y8130D01*
X8454Y8130D01*
X8450Y8134D01*
X8450Y8140D01*
X8449Y8150D01*
X8445Y8160D01*
X8439Y8169D01*
X8433Y8173D01*
Y8682D01*
X8439Y8686D01*
X8445Y8695D01*
X8449Y8705D01*
X8450Y8715D01*
X8449Y8725D01*
X8445Y8735D01*
X8439Y8744D01*
X8433Y8748D01*
Y8750D01*
X8431Y8759D01*
X8426Y8766D01*
X8411Y8781D01*
X8404Y8786D01*
X8395Y8788D01*
X8375D01*
Y8810D01*
X8360D01*
Y8830D01*
D02*
G37*
G36*
X9290Y7895D02*
X9190D01*
Y7795D01*
X9290D01*
Y7895D01*
D02*
G37*
G36*
X11740Y8275D02*
X11727Y8274D01*
X11715Y8269D01*
X11704Y8261D01*
X11696Y8250D01*
X11691Y8238D01*
X11690Y8225D01*
X11691Y8212D01*
X11696Y8200D01*
X11704Y8189D01*
X11715Y8181D01*
X11724Y8178D01*
Y8172D01*
X11715Y8169D01*
X11704Y8161D01*
X11696Y8150D01*
X11691Y8138D01*
X11690Y8125D01*
X11691Y8112D01*
X11696Y8100D01*
X11704Y8089D01*
X11715Y8081D01*
X11724Y8078D01*
Y8072D01*
X11715Y8069D01*
X11704Y8061D01*
X11696Y8050D01*
X11691Y8038D01*
X11690Y8025D01*
X11691Y8012D01*
X11696Y8000D01*
X11704Y7989D01*
X11715Y7981D01*
X11727Y7976D01*
X11740Y7975D01*
X11753Y7976D01*
X11765Y7981D01*
X11776Y7989D01*
X11776Y7990D01*
X11802D01*
Y7980D01*
X11888D01*
Y7980D01*
X11892D01*
Y7980D01*
X11978D01*
Y8070D01*
X11970D01*
Y8100D01*
X11969Y8109D01*
X11966Y8118D01*
X11960Y8125D01*
X11935Y8150D01*
X11928Y8156D01*
X11919Y8159D01*
X11910Y8160D01*
X11776D01*
X11776Y8161D01*
X11765Y8169D01*
X11756Y8172D01*
Y8178D01*
X11765Y8181D01*
X11776Y8189D01*
X11784Y8200D01*
X11789Y8212D01*
X11790Y8225D01*
X11789Y8238D01*
X11784Y8250D01*
X11776Y8261D01*
X11765Y8269D01*
X11753Y8274D01*
X11740Y8275D01*
D02*
G37*
G36*
X9945Y8495D02*
X9935Y8494D01*
X9925Y8490D01*
X9916Y8484D01*
X9910Y8475D01*
X9906Y8465D01*
X9905Y8455D01*
X9906Y8445D01*
X9910Y8435D01*
X9916Y8426D01*
X9922Y8422D01*
Y8158D01*
X9916Y8154D01*
X9910Y8145D01*
X9906Y8135D01*
X9905Y8125D01*
X9906Y8115D01*
X9910Y8105D01*
X9916Y8096D01*
X9925Y8090D01*
X9935Y8086D01*
X9945Y8085D01*
X9955Y8086D01*
X9965Y8090D01*
X9974Y8096D01*
X9980Y8105D01*
X9984Y8115D01*
X9985Y8125D01*
X9984Y8135D01*
X9980Y8145D01*
X9974Y8154D01*
X9968Y8158D01*
Y8422D01*
X9974Y8426D01*
X9980Y8435D01*
X9984Y8445D01*
X9985Y8455D01*
X9984Y8465D01*
X9980Y8475D01*
X9974Y8484D01*
X9965Y8490D01*
X9955Y8494D01*
X9945Y8495D01*
D02*
G37*
G36*
X8800Y8830D02*
X8740D01*
Y8810D01*
X8725D01*
Y8720D01*
X8807D01*
X8810Y8717D01*
X8810Y8715D01*
X8811Y8705D01*
X8815Y8695D01*
X8821Y8686D01*
X8827Y8682D01*
Y8223D01*
X8821Y8219D01*
X8815Y8210D01*
X8811Y8200D01*
X8810Y8190D01*
X8811Y8180D01*
X8815Y8170D01*
X8821Y8161D01*
X8830Y8155D01*
X8840Y8151D01*
X8850Y8150D01*
X8860Y8151D01*
X8870Y8155D01*
X8879Y8161D01*
X8885Y8170D01*
X8889Y8180D01*
X8890Y8190D01*
X8889Y8200D01*
X8885Y8210D01*
X8879Y8219D01*
X8873Y8223D01*
Y8682D01*
X8879Y8686D01*
X8885Y8695D01*
X8889Y8705D01*
X8890Y8715D01*
X8889Y8725D01*
X8885Y8735D01*
X8879Y8744D01*
X8873Y8748D01*
Y8750D01*
X8871Y8759D01*
X8866Y8766D01*
X8851Y8781D01*
X8844Y8786D01*
X8835Y8788D01*
X8815D01*
Y8810D01*
X8800D01*
Y8830D01*
D02*
G37*
G36*
X10120D02*
X10060D01*
Y8810D01*
X10045D01*
Y8720D01*
X10127D01*
X10130Y8717D01*
X10130Y8715D01*
X10131Y8705D01*
X10135Y8695D01*
X10141Y8686D01*
X10150Y8680D01*
X10152Y8679D01*
Y8008D01*
X10146Y8004D01*
X10144Y8000D01*
X10142Y8000D01*
X10139Y8001D01*
X10135Y8010D01*
X10129Y8019D01*
X10123Y8023D01*
Y8472D01*
X10129Y8476D01*
X10135Y8485D01*
X10139Y8495D01*
X10140Y8505D01*
X10139Y8515D01*
X10135Y8525D01*
X10129Y8534D01*
X10120Y8540D01*
X10110Y8544D01*
X10100Y8545D01*
X10090Y8544D01*
X10080Y8540D01*
X10071Y8534D01*
X10065Y8525D01*
X10061Y8515D01*
X10060Y8505D01*
X10061Y8495D01*
X10065Y8485D01*
X10071Y8476D01*
X10077Y8472D01*
Y8023D01*
X10071Y8019D01*
X10065Y8010D01*
X10061Y8000D01*
X10060Y7990D01*
X10061Y7980D01*
X10065Y7970D01*
X10071Y7961D01*
X10080Y7955D01*
X10090Y7951D01*
X10100Y7950D01*
X10110Y7951D01*
X10120Y7955D01*
X10129Y7961D01*
X10131Y7965D01*
X10133Y7965D01*
X10136Y7964D01*
X10140Y7955D01*
X10146Y7946D01*
X10155Y7940D01*
X10165Y7936D01*
X10175Y7935D01*
X10185Y7936D01*
X10195Y7940D01*
X10198Y7942D01*
X10202Y7940D01*
Y7121D01*
X10197Y7120D01*
X10195Y7125D01*
X10189Y7134D01*
X10180Y7140D01*
X10170Y7144D01*
X10160Y7145D01*
X10150Y7144D01*
X10140Y7140D01*
X10131Y7134D01*
X10125Y7125D01*
X10121Y7115D01*
X10120Y7105D01*
X10121Y7095D01*
X10125Y7085D01*
X10130Y7079D01*
Y7076D01*
X10125Y7070D01*
X10121Y7060D01*
X10120Y7050D01*
X10121Y7040D01*
X10125Y7030D01*
X10130Y7024D01*
Y6721D01*
X10125Y6715D01*
X10121Y6705D01*
X10120Y6695D01*
X10121Y6685D01*
X10125Y6675D01*
X10130Y6669D01*
Y6666D01*
X10125Y6660D01*
X10121Y6650D01*
X10120Y6640D01*
X10121Y6630D01*
X10125Y6620D01*
X10131Y6611D01*
X10140Y6605D01*
X10150Y6601D01*
X10160Y6600D01*
X10170Y6601D01*
X10180Y6605D01*
X10189Y6611D01*
X10195Y6620D01*
X10197Y6625D01*
X10202Y6624D01*
Y6348D01*
X10195Y6345D01*
X10186Y6339D01*
X10180Y6330D01*
X10176Y6320D01*
X10175Y6310D01*
X10176Y6300D01*
X10180Y6290D01*
X10186Y6281D01*
X10192Y6277D01*
Y6275D01*
X10194Y6266D01*
X10199Y6259D01*
X10214Y6244D01*
X10221Y6239D01*
X10230Y6237D01*
X10250D01*
Y6195D01*
X10265D01*
Y6175D01*
X10325D01*
Y6195D01*
X10340D01*
Y6285D01*
X10252D01*
X10249Y6289D01*
X10250Y6290D01*
X10254Y6300D01*
X10255Y6310D01*
X10254Y6320D01*
X10250Y6330D01*
X10248Y6333D01*
Y8077D01*
X10254Y8081D01*
X10260Y8090D01*
X10264Y8100D01*
X10265Y8110D01*
X10265Y8115D01*
X10269Y8117D01*
X10272Y8116D01*
Y7843D01*
X10266Y7839D01*
X10260Y7830D01*
X10256Y7820D01*
X10255Y7810D01*
X10256Y7800D01*
X10260Y7790D01*
X10266Y7781D01*
X10275Y7775D01*
X10285Y7771D01*
X10295Y7770D01*
X10305Y7771D01*
X10306Y7771D01*
X10310Y7769D01*
X10311Y7765D01*
X10315Y7755D01*
X10321Y7746D01*
X10330Y7740D01*
X10340Y7736D01*
X10350Y7735D01*
X10360Y7736D01*
X10370Y7740D01*
X10373Y7742D01*
X10378Y7741D01*
X10380Y7735D01*
X10386Y7726D01*
X10395Y7720D01*
X10405Y7716D01*
X10415Y7715D01*
X10425Y7716D01*
X10435Y7720D01*
X10444Y7726D01*
X10450Y7735D01*
X10454Y7745D01*
X10455Y7750D01*
X10460Y7750D01*
Y7065D01*
X10461Y7057D01*
X10463Y7052D01*
X10464Y7050D01*
X10469Y7044D01*
X10510Y7002D01*
Y6935D01*
Y6865D01*
Y6591D01*
X10505Y6585D01*
X10501Y6575D01*
X10500Y6565D01*
X10501Y6555D01*
X10505Y6545D01*
X10511Y6536D01*
X10520Y6530D01*
X10530Y6526D01*
X10540Y6525D01*
X10550Y6526D01*
X10560Y6530D01*
X10566Y6535D01*
X10579D01*
X10585Y6530D01*
X10595Y6526D01*
X10605Y6525D01*
X10615Y6526D01*
X10625Y6530D01*
X10634Y6536D01*
X10640Y6545D01*
X10644Y6555D01*
X10645Y6565D01*
X10644Y6575D01*
X10640Y6585D01*
X10634Y6594D01*
X10625Y6600D01*
X10615Y6604D01*
X10605Y6605D01*
X10595Y6604D01*
X10585Y6600D01*
X10579Y6595D01*
X10570D01*
Y6852D01*
X10588Y6870D01*
X10686D01*
X10694Y6859D01*
X10706Y6850D01*
X10720Y6844D01*
X10735Y6842D01*
X10750Y6844D01*
X10764Y6850D01*
X10776Y6859D01*
X10785Y6871D01*
X10791Y6885D01*
X10793Y6900D01*
X10791Y6915D01*
X10790Y6916D01*
Y6925D01*
X11310D01*
X11324Y6926D01*
X11338Y6932D01*
X11349Y6941D01*
X11358Y6952D01*
X11364Y6966D01*
X11365Y6980D01*
X11364Y6994D01*
X11358Y7008D01*
X11349Y7019D01*
X11338Y7028D01*
X11324Y7034D01*
X11310Y7035D01*
X10755D01*
X10755Y7035D01*
X10741Y7034D01*
X10731Y7030D01*
X10727Y7028D01*
X10716Y7019D01*
X10716Y7019D01*
X10696Y6999D01*
X10687Y6988D01*
X10681Y6974D01*
X10680Y6960D01*
Y6930D01*
X10588D01*
X10570Y6948D01*
Y7015D01*
X10570Y7015D01*
X10569Y7022D01*
X10569Y7023D01*
X10568Y7026D01*
X10566Y7030D01*
X10561Y7036D01*
X10520Y7078D01*
Y8492D01*
X10537Y8510D01*
X10540D01*
X10540Y8510D01*
X10540Y8510D01*
X10565D01*
X10571Y8511D01*
X10576Y8514D01*
X10579Y8519D01*
X10580Y8525D01*
Y8550D01*
X10580Y8550D01*
X10580Y8550D01*
Y8575D01*
X10579Y8581D01*
X10576Y8586D01*
X10571Y8589D01*
X10565Y8590D01*
X10540D01*
X10540Y8590D01*
X10540Y8590D01*
X10490D01*
X10490Y8590D01*
X10490Y8590D01*
X10440D01*
X10440Y8590D01*
X10440Y8590D01*
X10415D01*
X10409Y8589D01*
X10404Y8586D01*
X10401Y8581D01*
X10400Y8575D01*
Y8550D01*
X10400Y8550D01*
X10400Y8550D01*
Y8525D01*
X10401Y8519D01*
X10404Y8514D01*
X10409Y8511D01*
X10415Y8510D01*
X10440D01*
X10440Y8510D01*
X10440Y8510D01*
X10443D01*
X10460Y8492D01*
Y8330D01*
X10455Y8330D01*
X10454Y8335D01*
X10450Y8345D01*
X10444Y8354D01*
X10435Y8360D01*
X10425Y8364D01*
X10415Y8365D01*
X10405Y8364D01*
X10395Y8360D01*
X10386Y8354D01*
X10380Y8345D01*
X10376Y8335D01*
X10375Y8325D01*
X10376Y8315D01*
X10380Y8305D01*
X10386Y8296D01*
X10392Y8292D01*
Y8026D01*
X10387Y8024D01*
X10384Y8029D01*
X10375Y8035D01*
X10365Y8039D01*
X10355Y8040D01*
X10345Y8039D01*
X10335Y8035D01*
X10326Y8029D01*
X10323Y8024D01*
X10318Y8026D01*
Y8117D01*
X10324Y8121D01*
X10330Y8130D01*
X10334Y8140D01*
X10335Y8150D01*
X10334Y8160D01*
X10330Y8170D01*
X10324Y8179D01*
X10315Y8185D01*
X10305Y8189D01*
X10295Y8190D01*
X10285Y8189D01*
X10275Y8185D01*
X10266Y8179D01*
X10260Y8170D01*
X10256Y8160D01*
X10255Y8150D01*
X10256Y8143D01*
X10251Y8141D01*
X10245Y8145D01*
X10235Y8149D01*
X10225Y8150D01*
X10215Y8149D01*
X10205Y8145D01*
X10202Y8143D01*
X10198Y8145D01*
Y8686D01*
X10199Y8686D01*
X10205Y8695D01*
X10209Y8705D01*
X10210Y8715D01*
X10209Y8725D01*
X10205Y8735D01*
X10199Y8744D01*
X10193Y8748D01*
Y8750D01*
X10191Y8759D01*
X10186Y8766D01*
X10171Y8781D01*
X10164Y8786D01*
X10155Y8788D01*
X10135D01*
Y8810D01*
X10120D01*
Y8830D01*
D02*
G37*
G36*
X7900Y8565D02*
X7887Y8564D01*
X7875Y8559D01*
X7864Y8551D01*
X7856Y8540D01*
X7851Y8528D01*
X7850Y8515D01*
X7851Y8502D01*
X7856Y8490D01*
X7864Y8479D01*
X7875Y8471D01*
X7884Y8468D01*
Y8462D01*
X7875Y8459D01*
X7864Y8451D01*
X7856Y8440D01*
X7851Y8428D01*
X7850Y8415D01*
X7851Y8402D01*
X7856Y8390D01*
X7864Y8379D01*
X7875Y8371D01*
X7887Y8366D01*
X7900Y8365D01*
X7913Y8366D01*
X7925Y8371D01*
X7936Y8379D01*
X7944Y8390D01*
X7949Y8402D01*
X7950Y8408D01*
X7955Y8408D01*
Y8021D01*
X7947Y8013D01*
X7941Y8014D01*
X7936Y8021D01*
X7925Y8029D01*
X7913Y8034D01*
X7900Y8035D01*
X7887Y8034D01*
X7875Y8029D01*
X7864Y8021D01*
X7856Y8010D01*
X7851Y7998D01*
X7850Y7985D01*
X7851Y7972D01*
X7856Y7960D01*
X7864Y7949D01*
X7875Y7941D01*
X7884Y7938D01*
Y7932D01*
X7875Y7929D01*
X7864Y7921D01*
X7856Y7910D01*
X7851Y7898D01*
X7850Y7885D01*
X7851Y7872D01*
X7856Y7860D01*
X7864Y7849D01*
X7875Y7841D01*
X7887Y7836D01*
X7900Y7835D01*
X7913Y7836D01*
X7925Y7841D01*
X7936Y7849D01*
X7944Y7860D01*
X7949Y7872D01*
X7950Y7878D01*
X7955Y7878D01*
Y6671D01*
X7951Y6669D01*
X7945Y6660D01*
X7941Y6650D01*
X7940Y6640D01*
X7941Y6630D01*
X7945Y6620D01*
X7951Y6611D01*
X7960Y6605D01*
X7970Y6601D01*
X7980Y6600D01*
X7990Y6601D01*
X8000Y6605D01*
X8009Y6611D01*
X8015Y6620D01*
X8019Y6630D01*
X8020Y6640D01*
X8019Y6650D01*
X8015Y6660D01*
X8009Y6669D01*
X8005Y6671D01*
Y8010D01*
Y8500D01*
X8004Y8510D01*
X7998Y8518D01*
X7983Y8533D01*
X7975Y8539D01*
X7965Y8540D01*
X7943D01*
X7936Y8551D01*
X7925Y8559D01*
X7913Y8564D01*
X7900Y8565D01*
D02*
G37*
%LPD*%
D10*
X9830Y7720D02*
D03*
X9730D02*
D03*
X9835Y7915D02*
D03*
X9735D02*
D03*
D15*
X10895Y6800D02*
D03*
Y6700D02*
D03*
X9640Y8050D02*
D03*
Y8150D02*
D03*
X9540D02*
D03*
Y8050D02*
D03*
X9440Y8150D02*
D03*
Y8050D02*
D03*
X8535Y6240D02*
D03*
Y6140D02*
D03*
X8975Y6240D02*
D03*
Y6140D02*
D03*
X9415Y6240D02*
D03*
Y6140D02*
D03*
X9855Y6240D02*
D03*
Y6140D02*
D03*
X10295Y6240D02*
D03*
Y6140D02*
D03*
X10735Y6240D02*
D03*
Y6140D02*
D03*
X11175Y6240D02*
D03*
Y6140D02*
D03*
X8330Y8765D02*
D03*
Y8865D02*
D03*
X8770Y8765D02*
D03*
Y8865D02*
D03*
X9210Y8765D02*
D03*
Y8865D02*
D03*
X9650Y8765D02*
D03*
Y8865D02*
D03*
X10090Y8765D02*
D03*
Y8865D02*
D03*
X10530Y8765D02*
D03*
Y8865D02*
D03*
X10970Y8765D02*
D03*
Y8865D02*
D03*
D17*
X11845Y8025D02*
D03*
Y7925D02*
D03*
X11935Y8025D02*
D03*
Y7925D02*
D03*
X11845Y7470D02*
D03*
Y7370D02*
D03*
X11935Y7470D02*
D03*
Y7370D02*
D03*
X11040Y7470D02*
D03*
Y7570D02*
D03*
Y8025D02*
D03*
Y8125D02*
D03*
X9340Y8150D02*
D03*
Y8050D02*
D03*
D19*
X7980Y7985D02*
Y8010D01*
Y7960D02*
Y7985D01*
X7955D02*
X7980D01*
Y6640D02*
Y7960D01*
X7955Y7985D02*
X7980Y7960D01*
X11420Y8755D02*
Y8790D01*
X11400Y8810D02*
X11420Y8790D01*
X11400Y8795D02*
Y8810D01*
Y8730D02*
Y8795D01*
X11385Y8745D02*
X11400Y8730D01*
X11385Y8745D02*
Y8780D01*
X11400Y8795D01*
X11040Y7570D02*
Y7675D01*
Y7570D02*
X11320D01*
X11360Y7530D01*
Y7370D02*
Y7530D01*
Y7925D02*
Y8085D01*
X11320Y8125D02*
X11360Y8085D01*
X11040Y8125D02*
X11320D01*
X11040D02*
Y8230D01*
X9340Y8150D02*
Y8240D01*
Y8150D02*
X9440D01*
Y8050D02*
X9540D01*
X9640D01*
Y8150D02*
Y8240D01*
X9520D02*
X9540Y8220D01*
X9720Y7820D02*
X9725Y7815D01*
X9830D02*
X9840D01*
X9830D02*
Y7910D01*
X9540Y8150D02*
Y8220D01*
X9440Y8240D02*
X9520D01*
X10350Y7775D02*
X10355Y7780D01*
X9735Y7725D02*
Y7915D01*
X9340Y7975D02*
Y8050D01*
X9700Y7950D02*
X9735Y7915D01*
X9340Y7975D02*
X9365Y7950D01*
X9700D01*
X7835Y7810D02*
X7860Y7785D01*
X7900D01*
X7835Y7810D02*
Y8285D01*
X7865Y8315D01*
X7900D01*
X7965Y8515D02*
X7980Y8500D01*
X7900Y8515D02*
X7965D01*
X7900Y7985D02*
X7955D01*
X7980Y8010D01*
Y8500D01*
X9830Y7720D02*
Y7815D01*
X8300Y6525D02*
Y6945D01*
X8550Y6405D02*
Y6640D01*
Y7085D01*
D20*
X11050Y8715D02*
Y8750D01*
X11035Y8765D02*
X11050Y8750D01*
X10970Y8765D02*
X11035D01*
X10530D02*
X10595D01*
X10610Y8750D01*
Y8715D02*
Y8750D01*
X10090Y8765D02*
X10155D01*
X10170Y8750D01*
Y8715D02*
Y8750D01*
X9650Y8765D02*
X9715D01*
X9730Y8750D01*
Y8715D02*
Y8750D01*
X9210Y8765D02*
X9275D01*
X9290Y8750D01*
Y8715D02*
Y8750D01*
X8770Y8765D02*
X8835D01*
X8850Y8750D01*
Y8715D02*
Y8750D01*
X8330Y8765D02*
X8395D01*
X8410Y8750D01*
Y8715D02*
Y8750D01*
X8455Y6275D02*
X8470Y6260D01*
X8455Y6275D02*
Y6310D01*
X8895Y6275D02*
X8910Y6260D01*
X8895Y6275D02*
Y6310D01*
X9335Y6275D02*
X9350Y6260D01*
X9335Y6275D02*
Y6310D01*
X9775Y6275D02*
X9790Y6260D01*
X9775Y6275D02*
Y6310D01*
X10215Y6275D02*
X10230Y6260D01*
X10215Y6275D02*
Y6310D01*
X11095Y6275D02*
X11110Y6260D01*
X8895Y6310D02*
Y6645D01*
X11095Y6275D02*
Y6310D01*
X9775D02*
Y6605D01*
X9790Y6260D02*
X9855D01*
X9350D02*
X9415D01*
X8910D02*
X8975D01*
X8470D02*
X8535D01*
X9290Y8505D02*
Y8715D01*
X9730Y8505D02*
Y8715D01*
X10230Y6260D02*
X10295D01*
X11110D02*
X11175D01*
X11095Y6310D02*
Y6490D01*
X10100Y7990D02*
Y8505D01*
X10170Y8715D02*
X10175Y8710D01*
Y7975D02*
Y8710D01*
X10610Y8505D02*
Y8715D01*
X10600Y7935D02*
X10610Y7945D01*
Y8505D01*
X10680Y7875D02*
Y8510D01*
X11050Y8505D02*
Y8715D01*
X10295Y7810D02*
Y8150D01*
X10355Y7780D02*
Y8000D01*
X10415Y7755D02*
Y8325D01*
X9945Y8125D02*
Y8455D01*
X9290D02*
Y8505D01*
X10215Y6310D02*
X10225Y6320D01*
Y8110D01*
X8850Y8175D02*
Y8715D01*
X8410Y8140D02*
Y8715D01*
X8455Y8085D02*
X8460Y8090D01*
X8455Y6670D02*
Y6680D01*
Y8085D01*
Y6310D02*
Y6680D01*
X8895Y6645D02*
Y8045D01*
X8970Y7970D02*
X8970Y7980D01*
X9065Y6755D02*
Y7920D01*
X9775Y6605D02*
Y6755D01*
X8970Y6620D02*
Y7970D01*
X9335Y6570D02*
Y6585D01*
Y6615D01*
Y6310D02*
Y6585D01*
X9385Y7852D02*
X9395Y7863D01*
X9385Y7290D02*
X9395Y7280D01*
X9385Y7290D02*
Y7852D01*
X9395Y7855D02*
Y7863D01*
X9335Y7215D02*
X9345Y7225D01*
Y7900D01*
X9535Y7215D02*
Y7260D01*
X9440Y7305D02*
Y7805D01*
X9395Y7280D02*
X9423D01*
X9435Y7268D01*
Y7215D02*
Y7268D01*
X9525Y7270D02*
X9535Y7260D01*
X9475Y7270D02*
X9525D01*
X9440Y7305D02*
X9475Y7270D01*
X10655Y6275D02*
X10670Y6260D01*
X10655Y6275D02*
Y6310D01*
X10670Y6260D02*
X10735D01*
X10445Y6310D02*
X10655D01*
X10410Y6345D02*
X10445Y6310D01*
X8545Y7285D02*
Y8205D01*
X8540Y8210D02*
X8545Y8205D01*
X8395Y7445D02*
Y7695D01*
X9017Y6537D02*
Y7523D01*
Y6537D02*
X9020Y6560D01*
X9715Y7235D02*
Y7650D01*
Y7235D02*
X9735Y7215D01*
X10410Y6345D02*
Y6560D01*
X11095Y6490D02*
Y6510D01*
X8805Y6515D02*
Y7495D01*
X9495Y7310D02*
Y7565D01*
Y7310D02*
X9505Y7300D01*
X9620D01*
X9635Y7285D01*
Y7215D02*
Y7285D01*
D21*
X10735Y6700D02*
X10895D01*
D22*
X11740Y7570D02*
X11910D01*
X11935Y7545D01*
Y7470D02*
Y7545D01*
X11740Y7470D02*
X11845D01*
X11740Y7370D02*
X11845D01*
X11935D01*
X11845Y7925D02*
X11935D01*
X11740D02*
X11845D01*
X11740Y8025D02*
X11845D01*
X11935D02*
Y8100D01*
X11910Y8125D02*
X11935Y8100D01*
X11740Y8125D02*
X11910D01*
D23*
X8535Y6015D02*
Y6140D01*
X11175Y6015D02*
Y6140D01*
X8975Y6017D02*
Y6140D01*
X8535D02*
X8975D01*
Y6142D01*
X9415Y6017D02*
Y6140D01*
Y6142D01*
X8975Y6140D02*
X9415D01*
X9855D01*
X9856D01*
X10292D01*
X10295Y6017D02*
Y6140D01*
Y6142D01*
Y6140D02*
X10735D01*
X11175D01*
X10735Y6017D02*
Y6140D01*
Y6142D01*
X8335Y5960D02*
Y6015D01*
Y5960D02*
X8350Y5945D01*
X11380D02*
X11405Y5970D01*
Y6015D01*
X8745Y5945D02*
X8775Y5975D01*
Y5945D02*
Y5975D01*
Y6015D01*
X8350Y5945D02*
X8745D01*
X8775D01*
Y5975D02*
X8805Y5945D01*
X8775D02*
X8805D01*
X9215Y5975D02*
X9245Y5945D01*
X9215Y5975D02*
Y6015D01*
X9185Y5945D02*
X9215Y5975D01*
X9655D02*
X9685Y5945D01*
X9655Y5975D02*
Y6015D01*
X9625Y5945D02*
X9655Y5975D01*
X10095D02*
X10125Y5945D01*
X10095Y5975D02*
Y6015D01*
X10065Y5945D02*
X10095Y5975D01*
X10535D02*
X10565Y5945D01*
X10535Y5975D02*
Y6015D01*
X10505Y5945D02*
X10535Y5975D01*
X10975D02*
X11005Y5945D01*
X10975Y5975D02*
Y6015D01*
X10945Y5945D02*
X10975Y5975D01*
X11140Y9080D02*
X11170Y9050D01*
Y9010D02*
Y9050D01*
X11200Y9080D01*
X10700D02*
X10730Y9050D01*
Y9010D02*
Y9050D01*
X10760Y9080D01*
X10260D02*
X10290Y9050D01*
Y9010D02*
Y9050D01*
X10320Y9080D01*
X9820D02*
X9850Y9050D01*
Y9010D02*
Y9050D01*
X9880Y9080D01*
X9380D02*
X9410Y9050D01*
Y9010D02*
Y9050D01*
X9440Y9080D01*
X8970D02*
X9000D01*
X8970Y9050D02*
X9000Y9080D01*
X8940D02*
X8970D01*
X8545D02*
X8940D01*
X8970Y9010D02*
Y9050D01*
Y9080D01*
X8940D02*
X8970Y9050D01*
X8530Y9065D02*
X8545Y9080D01*
X8530Y9010D02*
Y9065D01*
X11375Y9080D02*
X11400Y9055D01*
Y9010D02*
Y9055D01*
X9000Y9080D02*
X9380D01*
X9440D01*
X9820D01*
X9880D01*
X10260D01*
X10320D01*
X10700D01*
X10760D01*
X11140D01*
X11200D01*
X11375D01*
X10530Y8863D02*
Y8865D01*
Y8988D01*
Y8865D02*
X10970D01*
X10090D02*
X10530D01*
X10090Y8863D02*
Y8865D01*
Y8988D01*
X9651Y8865D02*
X10087D01*
X9650D02*
X9651D01*
X9210D02*
X9650D01*
X8770D02*
X9210D01*
Y8863D02*
Y8865D01*
Y8988D01*
X8330Y8865D02*
X8770D01*
Y8988D01*
X10970Y8865D02*
Y8990D01*
X8330Y8865D02*
Y8990D01*
X11405Y6215D02*
Y6335D01*
X11440Y6370D01*
X11600D01*
X11625Y6395D01*
X10555Y6565D02*
X10605D01*
X10540Y6865D02*
X10575Y6900D01*
X9856Y6017D02*
Y6140D01*
Y6142D01*
X8770Y8863D02*
Y8865D01*
X9651Y8863D02*
Y8865D01*
Y8988D01*
X10540Y6580D02*
X10555Y6565D01*
X10540Y6580D02*
Y6865D01*
X10575Y6900D02*
X10735D01*
X8805Y5945D02*
X11380D01*
X11625Y6395D02*
Y6495D01*
X10735Y6700D02*
X10739Y6696D01*
Y6375D02*
Y6420D01*
Y6696D01*
Y6420D02*
X10784Y6375D01*
X10714Y6395D02*
X10739Y6420D01*
X10900Y8605D02*
Y8650D01*
Y8265D02*
Y8605D01*
Y8265D02*
X10935Y8230D01*
X11040D01*
X10900Y8605D02*
X10925Y8630D01*
X10855Y8650D02*
X10900Y8605D01*
Y7700D02*
X10925Y7675D01*
X11040D01*
X10900Y8195D02*
X10935Y8230D01*
X10900Y7700D02*
Y8195D01*
Y8230D02*
X10935D01*
X10900Y8195D02*
Y8230D01*
Y8265D01*
X10905Y7655D02*
X10925Y7675D01*
X9135Y8605D02*
Y8650D01*
Y8180D02*
Y8605D01*
Y8180D02*
X9165Y8150D01*
X9135Y8605D02*
X9160Y8630D01*
X9090Y8650D02*
X9135Y8605D01*
X9165Y8150D02*
X9340D01*
X10160Y6640D02*
Y6695D01*
Y7050D01*
Y7105D01*
X10900D02*
Y7160D01*
Y7700D01*
X10490Y7065D02*
X10540Y7015D01*
X10545Y6900D02*
X10575D01*
X10540Y6935D02*
X10575Y6900D01*
X10540Y6865D02*
Y6935D01*
Y7015D01*
X10490Y7065D02*
Y8505D01*
Y8550D01*
Y8505D02*
X10535Y8550D01*
X10445D02*
X10490Y8505D01*
X8655Y6480D02*
Y6525D01*
X8610Y6480D02*
X8655Y6525D01*
X8700Y6480D01*
X8655Y8500D02*
Y8545D01*
Y6525D02*
Y8500D01*
X8610Y8545D02*
X8655Y8500D01*
X8700Y8545D01*
D24*
X11403Y8672D02*
D03*
D25*
X10738Y6378D02*
D03*
X10901Y8648D02*
D03*
X9136D02*
D03*
D26*
X10490Y8550D02*
D03*
X8655Y6480D02*
D03*
Y8545D02*
D03*
D27*
X11310Y6980D02*
D03*
Y6480D02*
D03*
X11515Y6880D02*
D03*
X9935Y7215D02*
D03*
X9835D02*
D03*
X9735D02*
D03*
X9635D02*
D03*
X9535D02*
D03*
X9435D02*
D03*
X9335D02*
D03*
X8735Y7740D02*
D03*
X11740Y7670D02*
D03*
Y7370D02*
D03*
Y7470D02*
D03*
Y7570D02*
D03*
Y8225D02*
D03*
Y7925D02*
D03*
Y8025D02*
D03*
Y8125D02*
D03*
X7900Y7985D02*
D03*
Y7885D02*
D03*
Y7785D02*
D03*
Y8515D02*
D03*
Y8415D02*
D03*
Y8315D02*
D03*
X8530Y9010D02*
D03*
X8430D02*
D03*
X8330D02*
D03*
X8970D02*
D03*
X8870D02*
D03*
X8770D02*
D03*
X9410D02*
D03*
X9310D02*
D03*
X9210D02*
D03*
X9850D02*
D03*
X9750D02*
D03*
X9650D02*
D03*
X10290D02*
D03*
X10190D02*
D03*
X10090D02*
D03*
X10730D02*
D03*
X10630D02*
D03*
X10530D02*
D03*
X11170D02*
D03*
X11070D02*
D03*
X10970D02*
D03*
X9440Y8240D02*
D03*
X9640D02*
D03*
X9740D02*
D03*
X9840D02*
D03*
X11400Y8810D02*
D03*
X11405Y6215D02*
D03*
X9240Y7645D02*
D03*
X8335Y6015D02*
D03*
X8435D02*
D03*
X8535D02*
D03*
X8775D02*
D03*
X8875D02*
D03*
X8975D02*
D03*
X9215D02*
D03*
X9315D02*
D03*
X9415D02*
D03*
X9655D02*
D03*
X9755D02*
D03*
X9855D02*
D03*
X10095D02*
D03*
X10195D02*
D03*
X10295D02*
D03*
X10535D02*
D03*
X10635D02*
D03*
X10735D02*
D03*
X10975D02*
D03*
X11075D02*
D03*
X11175D02*
D03*
X11515Y7005D02*
D03*
D28*
Y6480D02*
D03*
X11400Y9010D02*
D03*
X11405Y6015D02*
D03*
X9240Y7845D02*
D03*
X11515Y7205D02*
D03*
D29*
X9235Y7215D02*
D03*
X8835Y7740D02*
D03*
X9340Y8240D02*
D03*
D30*
X11740Y7115D02*
D03*
Y6950D02*
D03*
Y6785D02*
D03*
D31*
Y6620D02*
D03*
D32*
X11870Y9065D02*
D03*
X7840D02*
D03*
Y5945D02*
D03*
X11870D02*
D03*
D33*
X10735Y6900D02*
D03*
Y6800D02*
D03*
Y6700D02*
D03*
D34*
X11950D02*
D03*
X11035Y7095D02*
D03*
X10295Y6975D02*
D03*
X10375Y6890D02*
D03*
X11075Y6800D02*
D03*
X11165Y6710D02*
D03*
X11285Y7110D02*
D03*
X11325Y6680D02*
D03*
X11265Y6810D02*
D03*
X11430Y6735D02*
D03*
X11545Y6675D02*
D03*
X11420Y7780D02*
D03*
X11140Y7105D02*
D03*
X11565Y8625D02*
D03*
X12025Y8715D02*
D03*
Y8505D02*
D03*
X12050Y8055D02*
D03*
X12060Y7795D02*
D03*
X12045Y7105D02*
D03*
X12050Y6455D02*
D03*
X11790Y6270D02*
D03*
X11965Y6225D02*
D03*
X11635Y6140D02*
D03*
X11595Y5850D02*
D03*
X11320Y5795D02*
D03*
X10840D02*
D03*
X10430D02*
D03*
X9935D02*
D03*
X9525D02*
D03*
X9100D02*
D03*
X8675Y5780D02*
D03*
X7815Y6250D02*
D03*
X8130Y5845D02*
D03*
X8080Y6130D02*
D03*
X8135Y6770D02*
D03*
X8040Y6460D02*
D03*
X7805Y6425D02*
D03*
X7710Y6715D02*
D03*
X10005Y6700D02*
D03*
X9910Y6850D02*
D03*
X9405Y6695D02*
D03*
X9585Y6665D02*
D03*
X10630Y7225D02*
D03*
X10340Y7240D02*
D03*
X10095D02*
D03*
X9770Y7100D02*
D03*
X9525Y7095D02*
D03*
X9345Y7085D02*
D03*
X9910Y7745D02*
D03*
X9855Y7675D02*
D03*
X10635Y7525D02*
D03*
X10400Y7535D02*
D03*
X10260Y8345D02*
D03*
X10375Y8445D02*
D03*
X10025Y8335D02*
D03*
X9540Y8360D02*
D03*
X8805Y7870D02*
D03*
X8760Y7960D02*
D03*
X8215Y7535D02*
D03*
X7850Y7530D02*
D03*
X7685Y7600D02*
D03*
X7675Y8655D02*
D03*
X7670Y8160D02*
D03*
X8280Y7990D02*
D03*
X8125Y8050D02*
D03*
X8285Y8110D02*
D03*
X8525Y8380D02*
D03*
X8995Y8290D02*
D03*
X8940Y8445D02*
D03*
X9010Y8385D02*
D03*
X8770Y8380D02*
D03*
X8170Y8535D02*
D03*
X8055Y8795D02*
D03*
X7790Y8815D02*
D03*
X8095Y9030D02*
D03*
X8140Y9245D02*
D03*
X8645D02*
D03*
X9095Y9240D02*
D03*
X9530Y9245D02*
D03*
X9950Y9235D02*
D03*
X10410D02*
D03*
X11275D02*
D03*
X10870D02*
D03*
X11495Y9210D02*
D03*
X11585Y9180D02*
D03*
X11690Y8825D02*
D03*
X11845Y8695D02*
D03*
X11400Y8615D02*
D03*
Y8730D02*
D03*
Y8671D02*
D03*
X11050Y8715D02*
D03*
X10610D02*
D03*
X10170D02*
D03*
X9730D02*
D03*
X9290D02*
D03*
X8850D02*
D03*
X8410D02*
D03*
X8455Y6310D02*
D03*
X8895D02*
D03*
X9335D02*
D03*
X9775D02*
D03*
X10215D02*
D03*
X11040Y7675D02*
D03*
X11360Y7370D02*
D03*
X11065Y7457D02*
D03*
Y8012D02*
D03*
X11360Y7925D02*
D03*
X11040Y8230D02*
D03*
X9725Y7815D02*
D03*
X9830D02*
D03*
X11095Y6310D02*
D03*
X10605Y6565D02*
D03*
X11625Y6435D02*
D03*
Y6495D02*
D03*
X10540Y6565D02*
D03*
X10100Y8505D02*
D03*
X9730D02*
D03*
X10100Y7990D02*
D03*
X11050Y8510D02*
D03*
X10175Y7975D02*
D03*
X10600Y7935D02*
D03*
X10680Y8510D02*
D03*
Y7875D02*
D03*
X10295Y8150D02*
D03*
Y7810D02*
D03*
X10355Y8000D02*
D03*
X10350Y7775D02*
D03*
X10415Y8325D02*
D03*
Y7755D02*
D03*
X9945Y8125D02*
D03*
Y8455D02*
D03*
X9290D02*
D03*
X10225Y8110D02*
D03*
X8850Y8190D02*
D03*
X8410Y8140D02*
D03*
X8460Y8090D02*
D03*
X8895Y8045D02*
D03*
X8970Y7980D02*
D03*
X9065Y7920D02*
D03*
Y6755D02*
D03*
X9775D02*
D03*
X8970Y6620D02*
D03*
X9335Y6615D02*
D03*
X9440Y7805D02*
D03*
X9395Y7855D02*
D03*
X9345Y7900D02*
D03*
X10655Y6310D02*
D03*
X8545Y7285D02*
D03*
X8540Y8210D02*
D03*
X8395Y7445D02*
D03*
Y7695D02*
D03*
X8805Y7495D02*
D03*
X9017Y7523D02*
D03*
X9020Y6560D02*
D03*
X9715Y7650D02*
D03*
X10410Y6560D02*
D03*
X11095Y6510D02*
D03*
X8805Y6515D02*
D03*
X9495Y7565D02*
D03*
X8550Y7085D02*
D03*
Y6405D02*
D03*
X10795Y6375D02*
D03*
X10680D02*
D03*
X10739D02*
D03*
X10900Y8650D02*
D03*
X10959D02*
D03*
X10844D02*
D03*
X9135D02*
D03*
X9194D02*
D03*
X9079D02*
D03*
X7980Y6640D02*
D03*
X8300Y6525D02*
D03*
Y6945D02*
D03*
X8550Y6640D02*
D03*
X10900Y7105D02*
D03*
X10160D02*
D03*
Y6640D02*
D03*
Y6695D02*
D03*
Y7050D02*
D03*
X10900Y7160D02*
D03*
X10540Y8550D02*
D03*
X10490D02*
D03*
X10440D02*
D03*
X8705Y6480D02*
D03*
X8655D02*
D03*
X8605D02*
D03*
Y8545D02*
D03*
X8655D02*
D03*
X8705D02*
D03*
D35*
X9725Y7815D02*
D03*
X9840D02*
D03*
D36*
X11515Y6880D02*
Y7005D01*
X11310Y6480D02*
X11515D01*
X11740Y6620D02*
Y6710D01*
Y6785D01*
D37*
Y6950D02*
X11865D01*
X11900Y6985D01*
X11825Y7255D02*
X11900Y7180D01*
Y6985D02*
Y7180D01*
X11565Y7255D02*
X11825D01*
X10735Y6907D02*
Y6960D01*
Y6800D02*
X10895D01*
X11210D01*
X11300Y6710D02*
X11665D01*
X11740Y6785D01*
X11665Y6695D02*
Y6710D01*
Y6695D02*
X11740Y6620D01*
Y7670D02*
X11965D01*
X12035Y7600D01*
X10735Y6960D02*
X10755Y6980D01*
X11310D01*
X11515Y7205D02*
X11565Y7255D01*
X11210Y6800D02*
X11300Y6710D01*
X11665D02*
X11740D01*
X12035Y7315D02*
Y7600D01*
X11900Y7255D02*
X11975D01*
X12035Y7315D01*
X11825Y7255D02*
X11900D01*
Y7180D02*
X11975Y7255D01*
X11900Y7180D02*
Y7255D01*
M02*
