%FSLAX23Y23*%
%MOIN*%
G70*
G01*
G75*
G04 Layer_Color=255*
%ADD10R,0.060X0.056*%
%ADD11R,0.018X0.071*%
%ADD12R,0.071X0.018*%
%ADD13R,0.059X0.059*%
%ADD14R,0.063X0.026*%
%ADD15R,0.059X0.059*%
%ADD16R,0.039X0.118*%
%ADD17R,0.056X0.060*%
%ADD18R,0.081X0.024*%
%ADD19C,0.020*%
%ADD20C,0.015*%
%ADD21C,0.050*%
%ADD22C,0.040*%
%ADD23C,0.030*%
%ADD24R,0.055X0.165*%
%ADD25R,0.165X0.055*%
%ADD26R,0.150X0.050*%
%ADD27C,0.070*%
%ADD28R,0.070X0.070*%
%ADD29R,0.070X0.070*%
%ADD30C,0.100*%
%ADD31R,0.100X0.100*%
%ADD32C,0.295*%
%ADD33C,0.085*%
%ADD34C,0.050*%
%ADD35R,0.063X0.063*%
%ADD36C,0.100*%
%ADD37C,0.080*%
D10*
X9830Y7720D02*
D03*
X9730D02*
D03*
X9835Y7915D02*
D03*
X9735D02*
D03*
D15*
X10895Y6800D02*
D03*
Y6700D02*
D03*
X9640Y8050D02*
D03*
Y8150D02*
D03*
X9540D02*
D03*
Y8050D02*
D03*
X9440Y8150D02*
D03*
Y8050D02*
D03*
X8535Y6240D02*
D03*
Y6140D02*
D03*
X8975Y6240D02*
D03*
Y6140D02*
D03*
X9415Y6240D02*
D03*
Y6140D02*
D03*
X9855Y6240D02*
D03*
Y6140D02*
D03*
X10295Y6240D02*
D03*
Y6140D02*
D03*
X10735Y6240D02*
D03*
Y6140D02*
D03*
X11175Y6240D02*
D03*
Y6140D02*
D03*
X8330Y8765D02*
D03*
Y8865D02*
D03*
X8770Y8765D02*
D03*
Y8865D02*
D03*
X9210Y8765D02*
D03*
Y8865D02*
D03*
X9650Y8765D02*
D03*
Y8865D02*
D03*
X10090Y8765D02*
D03*
Y8865D02*
D03*
X10530Y8765D02*
D03*
Y8865D02*
D03*
X10970Y8765D02*
D03*
Y8865D02*
D03*
D17*
X11845Y8025D02*
D03*
Y7925D02*
D03*
X11935Y8025D02*
D03*
Y7925D02*
D03*
X11845Y7470D02*
D03*
Y7370D02*
D03*
X11935Y7470D02*
D03*
Y7370D02*
D03*
X11040Y7470D02*
D03*
Y7570D02*
D03*
Y8025D02*
D03*
Y8125D02*
D03*
X9340Y8150D02*
D03*
Y8050D02*
D03*
D27*
X11310Y6980D02*
D03*
Y6480D02*
D03*
X11515Y6880D02*
D03*
X9935Y7215D02*
D03*
X9835D02*
D03*
X9735D02*
D03*
X9635D02*
D03*
X9535D02*
D03*
X9435D02*
D03*
X9335D02*
D03*
X8735Y7740D02*
D03*
X11740Y7670D02*
D03*
Y7370D02*
D03*
Y7470D02*
D03*
Y7570D02*
D03*
Y8225D02*
D03*
Y7925D02*
D03*
Y8025D02*
D03*
Y8125D02*
D03*
X7900Y7985D02*
D03*
Y7885D02*
D03*
Y7785D02*
D03*
Y8515D02*
D03*
Y8415D02*
D03*
Y8315D02*
D03*
X8530Y9010D02*
D03*
X8430D02*
D03*
X8330D02*
D03*
X8970D02*
D03*
X8870D02*
D03*
X8770D02*
D03*
X9410D02*
D03*
X9310D02*
D03*
X9210D02*
D03*
X9850D02*
D03*
X9750D02*
D03*
X9650D02*
D03*
X10290D02*
D03*
X10190D02*
D03*
X10090D02*
D03*
X10730D02*
D03*
X10630D02*
D03*
X10530D02*
D03*
X11170D02*
D03*
X11070D02*
D03*
X10970D02*
D03*
X9440Y8240D02*
D03*
X9640D02*
D03*
X9740D02*
D03*
X9840D02*
D03*
X11400Y8810D02*
D03*
X11405Y6215D02*
D03*
X9240Y7645D02*
D03*
X8335Y6015D02*
D03*
X8435D02*
D03*
X8535D02*
D03*
X8775D02*
D03*
X8875D02*
D03*
X8975D02*
D03*
X9215D02*
D03*
X9315D02*
D03*
X9415D02*
D03*
X9655D02*
D03*
X9755D02*
D03*
X9855D02*
D03*
X10095D02*
D03*
X10195D02*
D03*
X10295D02*
D03*
X10535D02*
D03*
X10635D02*
D03*
X10735D02*
D03*
X10975D02*
D03*
X11075D02*
D03*
X11175D02*
D03*
X11515Y7005D02*
D03*
D28*
Y6480D02*
D03*
X11400Y9010D02*
D03*
X11405Y6015D02*
D03*
X9240Y7845D02*
D03*
X11515Y7205D02*
D03*
D29*
X9235Y7215D02*
D03*
X8835Y7740D02*
D03*
X9340Y8240D02*
D03*
D30*
X11740Y7115D02*
D03*
Y6950D02*
D03*
Y6785D02*
D03*
D31*
Y6620D02*
D03*
D32*
X11870Y9065D02*
D03*
X7840D02*
D03*
Y5945D02*
D03*
X11870D02*
D03*
D33*
X10735Y6900D02*
D03*
Y6800D02*
D03*
Y6700D02*
D03*
D35*
X9725Y7815D02*
D03*
X9840D02*
D03*
M02*
