%FSLAX23Y23*%
%MOIN*%
G70*
G01*
G75*
G04 Layer_Color=128*
%ADD10R,0.060X0.056*%
%ADD11R,0.018X0.071*%
%ADD12R,0.071X0.018*%
%ADD13R,0.059X0.059*%
%ADD14R,0.063X0.026*%
%ADD15R,0.059X0.059*%
%ADD16R,0.039X0.118*%
%ADD17R,0.056X0.060*%
%ADD18R,0.081X0.024*%
%ADD19C,0.020*%
%ADD20C,0.015*%
%ADD21C,0.050*%
%ADD22C,0.040*%
%ADD23C,0.030*%
%ADD24R,0.055X0.165*%
%ADD25R,0.165X0.055*%
%ADD26R,0.150X0.050*%
%ADD27C,0.070*%
%ADD28R,0.070X0.070*%
%ADD29R,0.070X0.070*%
%ADD30C,0.100*%
%ADD31R,0.100X0.100*%
%ADD32C,0.295*%
%ADD33C,0.085*%
%ADD34C,0.050*%
%ADD35R,0.063X0.063*%
%ADD36C,0.100*%
%ADD37C,0.080*%
%ADD38C,0.010*%
%ADD39C,0.005*%
%ADD40C,0.008*%
%ADD41C,0.007*%
%ADD42R,0.020X0.050*%
%ADD43R,0.022X0.022*%
%ADD44R,0.018X0.022*%
%ADD45R,0.036X0.064*%
%ADD46R,0.080X0.065*%
%ADD47R,0.306X0.056*%
%ADD48R,0.050X0.020*%
%ADD49R,0.040X0.036*%
%ADD50R,0.039X0.039*%
%ADD51R,0.043X0.006*%
%ADD52R,0.039X0.039*%
%ADD53R,0.019X0.098*%
%ADD54R,0.036X0.040*%
%ADD55R,0.061X0.004*%
%ADD56R,0.050X0.050*%
%ADD57R,0.050X0.050*%
%ADD58C,0.080*%
%ADD59R,0.080X0.080*%
%ADD60C,0.275*%
%ADD61C,0.065*%
%ADD62C,0.030*%
%ADD63R,0.043X0.043*%
D10*
X9830Y7720D02*
D03*
X9730D02*
D03*
X9835Y7915D02*
D03*
X9735D02*
D03*
D15*
X10895Y6800D02*
D03*
Y6700D02*
D03*
X9640Y8050D02*
D03*
Y8150D02*
D03*
X9540D02*
D03*
Y8050D02*
D03*
X9440Y8150D02*
D03*
Y8050D02*
D03*
X8535Y6240D02*
D03*
Y6140D02*
D03*
X8975Y6240D02*
D03*
Y6140D02*
D03*
X9415Y6240D02*
D03*
Y6140D02*
D03*
X9855Y6240D02*
D03*
Y6140D02*
D03*
X10295Y6240D02*
D03*
Y6140D02*
D03*
X10735Y6240D02*
D03*
Y6140D02*
D03*
X11175Y6240D02*
D03*
Y6140D02*
D03*
X8330Y8765D02*
D03*
Y8865D02*
D03*
X8770Y8765D02*
D03*
Y8865D02*
D03*
X9210Y8765D02*
D03*
Y8865D02*
D03*
X9650Y8765D02*
D03*
Y8865D02*
D03*
X10090Y8765D02*
D03*
Y8865D02*
D03*
X10530Y8765D02*
D03*
Y8865D02*
D03*
X10970Y8765D02*
D03*
Y8865D02*
D03*
D17*
X11845Y8025D02*
D03*
Y7925D02*
D03*
X11935Y8025D02*
D03*
Y7925D02*
D03*
X11845Y7470D02*
D03*
Y7370D02*
D03*
X11935Y7470D02*
D03*
Y7370D02*
D03*
X11040Y7470D02*
D03*
Y7570D02*
D03*
Y8025D02*
D03*
Y8125D02*
D03*
X9340Y8150D02*
D03*
Y8050D02*
D03*
D35*
X9725Y7815D02*
D03*
X9840D02*
D03*
M02*
