%FSLAX23Y23*%
%MOIN*%
G70*
G01*
G75*
%ADD10R,0.060X0.056*%
%ADD11R,0.018X0.071*%
%ADD12R,0.071X0.018*%
%ADD13R,0.059X0.059*%
%ADD14R,0.063X0.026*%
%ADD15R,0.059X0.059*%
%ADD16R,0.039X0.118*%
%ADD17R,0.056X0.060*%
%ADD18R,0.081X0.024*%
%ADD19C,0.020*%
%ADD20C,0.015*%
%ADD21C,0.050*%
%ADD22C,0.040*%
%ADD23C,0.030*%
%ADD24R,0.055X0.165*%
%ADD25R,0.165X0.055*%
%ADD26R,0.150X0.050*%
%ADD27C,0.070*%
%ADD28R,0.070X0.070*%
%ADD29R,0.070X0.070*%
%ADD30C,0.100*%
%ADD31R,0.100X0.100*%
%ADD32C,0.295*%
%ADD33C,0.085*%
%ADD34C,0.050*%
%ADD35R,0.063X0.063*%
%ADD36C,0.100*%
%ADD37C,0.080*%
D10*
X11210Y6225D02*
D03*
X11110D02*
D03*
X10770D02*
D03*
X10670D02*
D03*
X10330D02*
D03*
X10230D02*
D03*
X9890D02*
D03*
X9790D02*
D03*
X9450D02*
D03*
X9350D02*
D03*
X11640Y8435D02*
D03*
X11740D02*
D03*
X8570Y6225D02*
D03*
X8470D02*
D03*
X10925Y7340D02*
D03*
X10825D02*
D03*
X10925Y7250D02*
D03*
X10825D02*
D03*
X11145Y8435D02*
D03*
X11045D02*
D03*
X9175Y8800D02*
D03*
X9275D02*
D03*
X9615D02*
D03*
X9715D02*
D03*
X10055D02*
D03*
X10155D02*
D03*
X10495D02*
D03*
X10595D02*
D03*
X8295D02*
D03*
X8395D02*
D03*
X8735D02*
D03*
X8835D02*
D03*
X10935D02*
D03*
X11035D02*
D03*
X7900Y6945D02*
D03*
X8000D02*
D03*
X7900Y7085D02*
D03*
X8000D02*
D03*
X8110Y7375D02*
D03*
X8210D02*
D03*
X8110Y7230D02*
D03*
X8210D02*
D03*
X8105Y7085D02*
D03*
X8205D02*
D03*
X8105Y6945D02*
D03*
X8205D02*
D03*
X7900Y7375D02*
D03*
X8000D02*
D03*
X7900Y7230D02*
D03*
X8000D02*
D03*
X8990Y7845D02*
D03*
X9090D02*
D03*
X8990Y7645D02*
D03*
X9090D02*
D03*
X11150Y7340D02*
D03*
X11050D02*
D03*
X11360Y7365D02*
D03*
X11460D02*
D03*
Y7470D02*
D03*
X11360D02*
D03*
X11460Y7570D02*
D03*
X11360D02*
D03*
X11460Y7670D02*
D03*
X11360D02*
D03*
X11040Y7675D02*
D03*
X10940D02*
D03*
X10925Y7805D02*
D03*
X10825D02*
D03*
X10925Y7900D02*
D03*
X10825D02*
D03*
X11150Y7895D02*
D03*
X11050D02*
D03*
X11360Y7925D02*
D03*
X11460D02*
D03*
Y8025D02*
D03*
X11360D02*
D03*
X11460Y8125D02*
D03*
X11360D02*
D03*
X11460Y8225D02*
D03*
X11360D02*
D03*
X11040Y8230D02*
D03*
X10940D02*
D03*
X11145Y8325D02*
D03*
X11045D02*
D03*
X9010Y6225D02*
D03*
X8910D02*
D03*
D11*
X9616Y7576D02*
D03*
X9648D02*
D03*
X9679D02*
D03*
X9711D02*
D03*
X9742D02*
D03*
X9774D02*
D03*
X9805D02*
D03*
X9837D02*
D03*
X9868D02*
D03*
X9900D02*
D03*
X9931D02*
D03*
X9616Y8049D02*
D03*
X9648D02*
D03*
X9679D02*
D03*
X9711D02*
D03*
X9742D02*
D03*
X9774D02*
D03*
X9805D02*
D03*
X9837D02*
D03*
X9868D02*
D03*
X9900D02*
D03*
X9931D02*
D03*
D12*
X9538Y7970D02*
D03*
Y7938D02*
D03*
Y7907D02*
D03*
Y7875D02*
D03*
Y7844D02*
D03*
Y7812D02*
D03*
Y7781D02*
D03*
Y7749D02*
D03*
Y7718D02*
D03*
Y7686D02*
D03*
Y7655D02*
D03*
X10010Y7970D02*
D03*
Y7938D02*
D03*
Y7907D02*
D03*
Y7875D02*
D03*
Y7844D02*
D03*
Y7812D02*
D03*
Y7781D02*
D03*
Y7749D02*
D03*
Y7718D02*
D03*
Y7686D02*
D03*
Y7655D02*
D03*
D13*
X9375Y8800D02*
D03*
X9475D02*
D03*
X9250Y6225D02*
D03*
X9150D02*
D03*
X10135D02*
D03*
X10035D02*
D03*
X9815Y8800D02*
D03*
X9915D02*
D03*
X8810Y6225D02*
D03*
X8710D02*
D03*
X10575D02*
D03*
X10475D02*
D03*
X10255Y8800D02*
D03*
X10355D02*
D03*
X11010Y6225D02*
D03*
X10910D02*
D03*
X10695Y8800D02*
D03*
X10795D02*
D03*
X8500D02*
D03*
X8600D02*
D03*
X9690Y6225D02*
D03*
X9590D02*
D03*
X8935Y8800D02*
D03*
X9035D02*
D03*
X8205Y7885D02*
D03*
X8105D02*
D03*
Y7790D02*
D03*
X8205D02*
D03*
X8105Y7695D02*
D03*
X8205D02*
D03*
Y8415D02*
D03*
X8105D02*
D03*
Y8310D02*
D03*
X8205D02*
D03*
X8105Y8210D02*
D03*
X8205D02*
D03*
X11135Y8800D02*
D03*
X11235D02*
D03*
X8370Y6225D02*
D03*
X8270D02*
D03*
D14*
X9445Y8605D02*
D03*
Y8705D02*
D03*
X9195D02*
D03*
Y8605D02*
D03*
X9005D02*
D03*
Y8705D02*
D03*
X8755D02*
D03*
Y8605D02*
D03*
X8565D02*
D03*
Y8705D02*
D03*
X8315D02*
D03*
Y8605D02*
D03*
X9885D02*
D03*
Y8705D02*
D03*
X9635D02*
D03*
Y8605D02*
D03*
X10325D02*
D03*
Y8705D02*
D03*
X10075D02*
D03*
Y8605D02*
D03*
X10765D02*
D03*
Y8705D02*
D03*
X10515D02*
D03*
Y8605D02*
D03*
X11205D02*
D03*
Y8705D02*
D03*
X10955D02*
D03*
Y8605D02*
D03*
X11285Y8435D02*
D03*
Y8335D02*
D03*
X11535D02*
D03*
Y8435D02*
D03*
X8300Y6420D02*
D03*
Y6320D02*
D03*
X8550D02*
D03*
Y6420D02*
D03*
X8740D02*
D03*
Y6320D02*
D03*
X8990D02*
D03*
Y6420D02*
D03*
X9180D02*
D03*
Y6320D02*
D03*
X9430D02*
D03*
Y6420D02*
D03*
X9620D02*
D03*
Y6320D02*
D03*
X9870D02*
D03*
Y6420D02*
D03*
X10060D02*
D03*
Y6320D02*
D03*
X10310D02*
D03*
Y6420D02*
D03*
X10500D02*
D03*
Y6320D02*
D03*
X10750D02*
D03*
Y6420D02*
D03*
X10940D02*
D03*
Y6320D02*
D03*
X11190D02*
D03*
Y6420D02*
D03*
D15*
X10600Y6790D02*
D03*
Y6890D02*
D03*
D16*
X10440Y6763D02*
D03*
Y6940D02*
D03*
X11010Y6837D02*
D03*
Y6660D02*
D03*
D17*
X11555Y7570D02*
D03*
Y7470D02*
D03*
Y8125D02*
D03*
Y8025D02*
D03*
D18*
X10940Y7595D02*
D03*
Y7545D02*
D03*
Y7495D02*
D03*
Y7445D02*
D03*
X11151Y7595D02*
D03*
Y7545D02*
D03*
Y7495D02*
D03*
Y7445D02*
D03*
X10940Y8150D02*
D03*
Y8100D02*
D03*
Y8050D02*
D03*
Y8000D02*
D03*
X11151Y8150D02*
D03*
Y8100D02*
D03*
Y8050D02*
D03*
Y8000D02*
D03*
D27*
X11310Y6980D02*
D03*
Y6480D02*
D03*
X11515Y6880D02*
D03*
X9935Y7215D02*
D03*
X9835D02*
D03*
X9735D02*
D03*
X9635D02*
D03*
X9535D02*
D03*
X9435D02*
D03*
X9335D02*
D03*
X8735Y7740D02*
D03*
X11740Y7670D02*
D03*
Y7370D02*
D03*
Y7470D02*
D03*
Y7570D02*
D03*
Y8225D02*
D03*
Y7925D02*
D03*
Y8025D02*
D03*
Y8125D02*
D03*
X7900Y7985D02*
D03*
Y7885D02*
D03*
Y7785D02*
D03*
Y8515D02*
D03*
Y8415D02*
D03*
Y8315D02*
D03*
X8530Y9010D02*
D03*
X8430D02*
D03*
X8330D02*
D03*
X8970D02*
D03*
X8870D02*
D03*
X8770D02*
D03*
X9410D02*
D03*
X9310D02*
D03*
X9210D02*
D03*
X9850D02*
D03*
X9750D02*
D03*
X9650D02*
D03*
X10290D02*
D03*
X10190D02*
D03*
X10090D02*
D03*
X10730D02*
D03*
X10630D02*
D03*
X10530D02*
D03*
X11170D02*
D03*
X11070D02*
D03*
X10970D02*
D03*
X9440Y8240D02*
D03*
X9640D02*
D03*
X9740D02*
D03*
X9840D02*
D03*
X11400Y8810D02*
D03*
X11405Y6215D02*
D03*
X9240Y7645D02*
D03*
X8335Y6015D02*
D03*
X8435D02*
D03*
X8535D02*
D03*
X8775D02*
D03*
X8875D02*
D03*
X8975D02*
D03*
X9215D02*
D03*
X9315D02*
D03*
X9415D02*
D03*
X9655D02*
D03*
X9755D02*
D03*
X9855D02*
D03*
X10095D02*
D03*
X10195D02*
D03*
X10295D02*
D03*
X10535D02*
D03*
X10635D02*
D03*
X10735D02*
D03*
X10975D02*
D03*
X11075D02*
D03*
X11175D02*
D03*
X11515Y7005D02*
D03*
D28*
Y6480D02*
D03*
X11400Y9010D02*
D03*
X11405Y6015D02*
D03*
X9240Y7845D02*
D03*
X11515Y7205D02*
D03*
D29*
X9235Y7215D02*
D03*
X8835Y7740D02*
D03*
X9340Y8240D02*
D03*
D30*
X11740Y7115D02*
D03*
Y6950D02*
D03*
Y6785D02*
D03*
D31*
Y6620D02*
D03*
D32*
X11870Y9065D02*
D03*
X7840D02*
D03*
Y5945D02*
D03*
X11870D02*
D03*
D33*
X10735Y6900D02*
D03*
Y6800D02*
D03*
Y6700D02*
D03*
M02*
