M48
;Layer_Color=9474304
;FILE_FORMAT=2:3
INCH,LZ
;TYPE=PLATED
T1F00S00C0.028
T2F00S00C0.035
T3F00S00C0.038
T4F00S00C0.045
T5F00S00C0.055
T6F00S00C0.060
T7F00S00C0.177
%
T01
X0487Y0167
X0491Y0196
X05065Y0209
X0524Y02045
X05325Y02275
X05225Y0252
X0482Y02495
X04705Y02555
X049Y02315
Y02255
X0532Y02925
X0456Y0293
X04415Y02925
X0431Y02915
X04175Y02925
Y0298
X03905Y03045
X03615Y0306
X0337
X03435Y02925
Y0287
X0357Y02795
X0365Y0271
X03685Y0238
X03815Y02385
X0388
X03955Y02195
X04014
X0407
X0393Y0213
X0349
X03435Y0246
Y02515
X0328Y0252
X03185Y0267
X0321Y01615
X03705
X04115
X04595
X0437Y0213
Y0233
X0444Y0253
X0435Y0262
X0454Y0263
X046Y025
X0305Y02575
X0286Y02485
X0268Y02515
X0261Y02435
Y0213
X0217
X0208Y02335
X0198Y023
X0193
X0188
X01825Y02225
X0173Y0213
X01575Y02345
X01825Y0246
X02245Y0244
X02295Y0238
X0234Y02575
X0262Y02905
X028Y02915
X03045Y0292
X0305Y0213
X028Y01615
X02375
X0195Y016
X01825Y02905
X0182Y03105
X01575Y02765
X0141Y0259
X01255Y0246
X01315Y0228
X0108Y02245
X0109Y0207
X01355Y0195
X01405Y01665
X00985Y02535
X0096Y0342
X01125Y0335
X0149Y03355
X01555Y0381
X0156Y0393
X014Y0387
X01445Y04355
X0133Y04615
X01065Y04635
X0095Y04475
X00945Y0398
X01685Y0396
X01735Y0391
X01815Y0403
X018Y042
X02045
X0198Y04365
X0193
X0188
X01685Y04535
X02125
X02354Y0447
X0241
X02469
X02565Y04535
Y04275
X02815Y0418
X03005Y04325
Y04535
X03Y03635
X03105
X0299Y0347
X0277Y03385
X02715Y03625
X0267Y03675
X0262Y0372
X0234Y0374
X02245Y038
X0217Y03865
X02125Y0401
X0227Y0411
X02285Y04205
X02215Y04265
X02035Y0378
X0208Y0369
Y03315
X02293Y03342
X0167Y03265
Y03515
X0313Y03495
X03185Y03565
X0322Y03945
X033Y04155
X0322Y04275
X03375Y04325
X03445Y04535
X03715Y0437
X03765
X03815
X03955Y0433
X03885Y04535
X04119Y0447
X04175
X04234
X04325Y04535
Y0433
X04315Y0405
X0434Y03832
X04315Y03495
X0434Y03277
X04635Y0319
Y03745
X04675Y04435
Y04491
Y0455
X0365Y04265
X0369Y04145
X03535Y04165
X0357Y0397
X035Y0393
X0345Y03795
X03375Y0381
X0363Y0382
X03625Y03595
X0369Y03575
X0357Y0363
X03675Y03355
X0391Y03345
X03955Y03695
X03875Y03755
X04695Y036
X05335Y03615
X05325Y03875
X053Y04325
Y04535
X0512Y04515
X04965Y04645
X0484Y04445
X0486Y05
X0477Y0503
X0455Y05055
X04145
X03685
X03225
X02805Y05065
X0237Y0506
X0192Y05065
X01415
X0137Y0485
T02
X0321Y03035
X0311
X0301
X0291
X0281
X0271
X0261
X0251
X02615Y0406
X02715
X02915
X03015
X03115
T03
X0479Y02825
Y03025
X04585Y028
Y023
X0468Y02035
Y01835
X0445
X0435
X0425
X0401
X0391
X0381
X0357
X0347
X0337
X0313
X0303
X0293
X0269
X0259
X0249
X0225
X0215
X0205
X0181
X0171
X0161
X01175Y03605
Y03705
Y03805
Y04135
Y04235
Y04335
X0201Y0356
X0211
X02515Y03465
Y03665
X04675Y0463
X05015Y04045
Y03945
Y03845
Y03745
Y0349
Y0339
Y0329
Y0319
X04675Y0483
X04445
X04345
X04245
X04005
X03905
X03805
X03565
X03465
X03365
X03125
X03025
X02925
X02685
X02585
X02485
X02245
X02145
X02045
X01805
X01705
X01605
T04
X0479Y023
Y027
T05
X0401Y0252
Y0262
Y0272
T06
X05015Y0244
Y02605
Y0277
Y02935
T07
X05145Y01765
X01115
X05145Y04885
X01115
M30
